STARTFONT 2.1
COMMENT
COMMENT Converted from OpenType font "7segment.ttf" by "otf2bdf 3.0".
COMMENT
FONT -FreeType-Seven Segment-Medium-R-Normal--91-660-100-100-P-296-ISO10646-1
SIZE 66 100 100
FONTBOUNDINGBOX 212 92 0 -12
STARTPROPERTIES 19
FOUNDRY "FreeType"
FAMILY_NAME "Seven Segment"
WEIGHT_NAME "Medium"
SLANT "R"
SETWIDTH_NAME "Normal"
ADD_STYLE_NAME ""
PIXEL_SIZE 91
POINT_SIZE 660
RESOLUTION_X 100
RESOLUTION_Y 100
SPACING "P"
AVERAGE_WIDTH 296
CHARSET_REGISTRY "ISO10646"
CHARSET_ENCODING "1"
FONT_ASCENT 79
FONT_DESCENT 16
COPYRIGHT "-FreeType-Seven Segment-Medium-R-Normal--91-660-100-100-P-296-ISO10646-1"
_OTF_FONTFILE "7segment.ttf"
_OTF_PSNAME "SevenSegmentRegular"
ENDPROPERTIES
CHARS 164
STARTCHAR 0000
ENCODING 0
SWIDTH 0 0
DWIDTH 0 0
BBX 0 0 0 0
BITMAP
ENDCHAR
STARTCHAR 000A
ENCODING 10
SWIDTH 480 0
DWIDTH 44 0
BBX 0 0 0 0
BITMAP
ENDCHAR
STARTCHAR 000D
ENCODING 13
SWIDTH 480 0
DWIDTH 44 0
BBX 0 0 0 0
BITMAP
ENDCHAR
STARTCHAR 0020
ENCODING 32
SWIDTH 305 0
DWIDTH 28 0
BBX 0 0 0 0
BITMAP
ENDCHAR
STARTCHAR 0021
ENCODING 33
SWIDTH 185 0
DWIDTH 17 0
BBX 5 64 6 0
BITMAP
20
70
F8
F8
F8
F8
F8
F8
F8
F8
F8
F8
F8
F8
F8
F8
F8
F8
F8
F8
F8
F8
F8
F8
F8
F8
F8
F8
F8
F8
F8
F8
F8
F8
F8
F8
F8
F8
F8
F8
F8
F8
F8
F8
F8
F8
F8
F8
F8
F8
F8
70
20
00
00
20
70
F8
F8
F8
F8
F8
70
20
ENDCHAR
STARTCHAR 0022
ENCODING 34
SWIDTH 283 0
DWIDTH 26 0
BBX 14 9 6 55
BITMAP
2010
7038
F87C
F8FC
F8FC
F8FC
F87C
7038
2010
ENDCHAR
STARTCHAR 0023
ENCODING 35
SWIDTH 545 0
DWIDTH 50 0
BBX 38 43 6 0
BITMAP
00001C0180
00007C07C0
00007E0FC0
00007E0FC0
0000FC0FC0
0000FC1FC0
0001FC1F80
0001F81F80
0001F83F80
0003F83F00
0003F03F00
0003F07E00
3FFFFFFFF0
7FFFFFFFF8
FFFFFFFFFC
FFFFFFFFFC
7FFFFFFFF8
3FFFFFFFF0
001F81F800
001F83F800
003F83F000
003F03F000
003F07E000
007E07E000
3FFFFFFFF0
7FFFFFFFF8
FFFFFFFFFC
FFFFFFFFFC
7FFFFFFFF8
3FFFFFFFF0
01F83F8000
03F83F0000
03F03F0000
03F07E0000
07F07E0000
07E0FE0000
07E0FC0000
0FE0FC0000
0FC1FC0000
0FC1F80000
0F80F80000
0780F00000
0600400000
ENDCHAR
STARTCHAR 0024
ENCODING 36
SWIDTH 501 0
DWIDTH 46 0
BBX 35 80 6 -8
BITMAP
0000C00000
0001E00000
0003F00000
0003F00000
0003F00000
0003F00000
0003F00000
0003F00000
03FFFFF000
07FFFFF800
0FFFFFFC00
0FFFFFFC00
07FFFFF800
63FFFFF000
F000000000
F800000000
F800000000
F800000000
F800000000
F800000000
F800000000
F800000000
F800000000
F800000000
F800000000
F800000000
F800000000
F800000000
F800000000
F800000000
F800000000
F800000000
F800000000
F800000000
F800000000
F800000000
F000000000
63FFFFF000
07FFFFF800
0FFFFFFC00
0FFFFFFC00
07FFFFF800
03FFFFF180
00000003C0
00000007E0
00000007E0
00000007E0
00000007E0
00000007E0
00000007E0
00000007E0
00000007E0
00000007E0
00000007E0
00000007E0
00000007E0
00000007E0
00000007E0
00000007E0
00000007E0
00000007E0
00000007E0
00000007E0
00000007E0
00000007E0
00000003C0
03FFFFF180
07FFFFF800
0FFFFFFC00
0FFFFFFC00
07FFFFF800
03FFFFF000
0003F00000
0003F00000
0003F00000
0003F00000
0003F00000
0003F00000
0001E00000
0000C00000
ENDCHAR
STARTCHAR 0025
ENCODING 37
SWIDTH 709 0
DWIDTH 65 0
BBX 53 64 6 0
BITMAP
00000000001800
00000000007800
0000000000FC00
0000000001FC00
0000000001FC00
0000000003F800
0000000003F800
0000000007F000
0000000007E000
000000000FE000
1FFE00001FC000
3FFF00001FC000
1FFE00003F8000
C000C0003F0000
E001E0007F0000
E001E0007E0000
E001E000FE0000
E001E001FC0000
E001E001FC0000
E001E003F80000
E001E003F00000
E001E007F00000
E001E00FE00000
E001E00FE00000
E001E01FC00000
E001E01FC00000
E001E03F800000
C000C03F000000
1FFE007F000000
3FFF00FE000000
1FFE00FE000000
000001FC000000
000001F8000000
000003F807FFC0
000007F00FFFE0
000007F017FFD0
00000FE0380038
00000FE0380038
00001FC0380038
00001F80380038
00003F80380038
00007F00380038
00007F00380038
0000FE00380038
0000FC00380038
0001FC00380038
0003F800380038
0003F800380038
0007F000380038
0007F000380038
000FE000380038
000FC00017FFD0
001FC0000FFFE0
003F800007FFC0
003F8000000000
007F0000000000
007E0000000000
00FE0000000000
01FC0000000000
01FC0000000000
01F80000000000
01F80000000000
01F00000000000
00C00000000000
ENDCHAR
STARTCHAR 0026
ENCODING 38
SWIDTH 2378 0
DWIDTH 218 0
BBX 206 64 6 0
BITMAP
03FFFFF000000000000000000000000000000000000000000000
07FFFFF800000000000000000000000000000000000000000000
0FFFFFFC00000000000000000000000000000000000000000000
0FFFFFFC00000000000000000000000000000000000000000000
07FFFFF800000000000000000000000000000000000000000000
63FFFFF000000000000000000000000000000000000000000000
F000000000000000000000000000000000000000000000000000
F800000000000000000000000000000000000000000000000000
F800000000000000000000000000000000000000000000000000
F800000000000000000000000000000000000000000000000000
F800000000000000000000000000000000000000000000000000
F800000000000000000000000000000000000000000000000000
F800000000000000000000000000000000000000000000000000
F800000000000000000000000000000000000000000000000000
F800000000000000000000000000000000000000000000000000
F800000000000000000000000000000000000000000000000000
F800000000000000000000000000000000000000000000000000
F800000000000000000000000000000000000000000000000000
F800000000000000000000000000000000000000000000000000
F800000000000000000000000000000000000000000000000000
F800000000000000000000000000000000000000000000000000
F800000000000000000000000000000000000000000000000000
F800000000000000000000000000000000000000000000000000
F800000000000000000000000000000000000000000000000000
F800000000000000000000000000000000000000000000000000
F800000000000000000000000000000000000000000000000000
F800000000000000000000000000000000000000000000000000
F800000000000000000000000000000000000000000000000000
F000000000000000000000000000000000000000000000000000
63FFFFF000007FFFFE00000FFFFF800001FFFFF0000003FFFFF0
07FFFFF80000FFFFFF00001FFFFFC00003FFFFF8000007FFFFF8
0FFFFFFC0001FFFFFF80003FFFFFE00007FFFFFC00000FFFFFFC
0FFFFFFC0001FFFFFF80003FFFFFE00007FFFFFC00000FFFFFFC
07FFFFF80000FFFFFF00001FFFFFC00003FFFFF8000007FFFFF8
63FFFFF0000C7FFFFE00018FFFFFC00031FFFFF1800063FFFFF0
F0000000001E0000000003C00000000078000003C000F0000000
F8000000003F0000000007E000000000FC000007E001F8000000
F8000000003F0000000007E000000000FC000007E001F8000000
F8000000003F0000000007E000000000FC000007E001F8000000
F8000000003F0000000007E000000000FC000007E001F8000000
F8000000003F0000000007E000000000FC000007E001F8000000
F8000000003F0000000007E000000000FC000007E001F8000000
F8000000003F0000000007E000000000FC000007E001F8000000
F8000000003F0000000007E000000000FC000007E001F8000000
F8000000003F0000000007E000000000FC000007E001F8000000
F8000000003F0000000007E000000000FC000007E001F8000000
F8000000003F0000000007E000000000FC000007E001F8000000
F8000000003F0000000007E000000000FC000007E001F8000000
F8000000003F0000000007E000000000FC000007E001F8000000
F8000000003F0000000007E000000000FC000007E001F8000000
F8000000003F0000000007E000000000FC000007E001F8000000
F8000000003F0000000007E000000000FC000007E001F8000000
F8000000003F0000000007E000000000FC000007E001F8000000
F8000000003F0000000007E000000000FC000007E001F8000000
F8000000003F0000000007E000000000FC000007E001F8000000
F8000000003F0000000007E000000000FC000007E001F8000000
F8000000003F0000000007E000000000FC000007E001F8000000
F0000000003F0000000007E00000000078000003C001F8000000
63FFFFF0003F0000000007E00000000031FFFFF18001F8000000
07FFFFF8003F0000000007E00000000003FFFFF80001F8000000
0FFFFFFC003F0000000007E00000000007FFFFFC0001F8000000
0FFFFFFC001F0000000003E00000000007FFFFFC0000F8000000
07FFFFF8000E0000000001C00000000003FFFFF8000070000000
03FFFFF000040000000000800000000001FFFFF0000020000000
ENDCHAR
STARTCHAR 0028
ENCODING 40
SWIDTH 381 0
DWIDTH 35 0
BBX 23 64 6 0
BITMAP
03FFF8
07FFFC
0FFFFE
0FFFFE
07FFFC
63FFF8
F00000
F80000
F80000
F80000
F80000
F80000
F80000
F80000
F80000
F80000
F80000
F80000
F80000
F80000
F80000
F80000
F80000
F80000
F80000
F80000
F80000
F80000
F80000
700000
200000
000000
000000
200000
700000
F80000
F80000
F80000
F80000
F80000
F80000
F80000
F80000
F80000
F80000
F80000
F80000
F80000
F80000
F80000
F80000
F80000
F80000
F80000
F80000
F80000
F80000
F00000
63FFF8
07FFFC
0FFFFE
0FFFFE
07FFFC
03FFF8
ENDCHAR
STARTCHAR 0029
ENCODING 41
SWIDTH 381 0
DWIDTH 35 0
BBX 23 64 6 0
BITMAP
3FFF80
7FFFC0
FFFFE0
FFFFE0
7FFFC8
3FFF9C
00003E
00003E
00003E
00003E
00003E
00003E
00003E
00003E
00003E
00003E
00003E
00003E
00003E
00003E
00003E
00003E
00003E
00003E
00003E
00003E
00003E
00003E
00003E
00001C
000008
000000
000000
000008
00001C
00003E
00003E
00003E
00003E
00003E
00003E
00003E
00003E
00003E
00003E
00003E
00003E
00003E
00003E
00003E
00003E
00003E
00003E
00003E
00003E
00003E
00003E
00001C
3FFF88
7FFFC0
FFFFE0
FFFFE0
7FFFC0
3FFF80
ENDCHAR
STARTCHAR 002A
ENCODING 42
SWIDTH 414 0
DWIDTH 38 0
BBX 26 31 6 46
BITMAP
000C0000
001E0000
003F0000
003F0000
003F0000
003F0000
003F0000
F83F07C0
FE3F1FC0
FFBF7FC0
FFFFFFC0
7FFFFF80
3FFFFF00
0FFFFC00
03FFF000
01FFE000
07FFF800
0FFFFC00
3FFFFF00
7FFFFF80
FFFFFFC0
FF3F3FC0
FE3F1FC0
F83F07C0
003F0000
003F0000
003F0000
003F0000
003F0000
001E0000
000C0000
ENDCHAR
STARTCHAR 002B
ENCODING 43
SWIDTH 665 0
DWIDTH 61 0
BBX 49 50 6 5
BITMAP
00000080000000
000001C0000000
000003E0000000
000007E0000000
000007E0000000
000007E0000000
000007E0000000
000007E0000000
000007E0000000
000007E0000000
000007E0000000
000007E0000000
000007E0000000
000007E0000000
000007E0000000
000007E0000000
000007E0000000
000007E0000000
000007E0000000
000007E0000000
000007E0000000
000003E0000000
3FFFF9CFFFFE00
7FFFFC9FFFFF00
FFFFFE1FFFFF80
FFFFFE1FFFFF80
7FFFFC1FFFFF00
3FFFF88FFFFE00
000001C0000000
000003E0000000
000007E0000000
000007E0000000
000007E0000000
000007E0000000
000007E0000000
000007E0000000
000007E0000000
000007E0000000
000007E0000000
000007E0000000
000007E0000000
000007E0000000
000007E0000000
000007E0000000
000007E0000000
000007E0000000
000007E0000000
000003E0000000
000001C0000000
00000080000000
ENDCHAR
STARTCHAR 002C
ENCODING 44
SWIDTH 229 0
DWIDTH 21 0
BBX 10 10 6 0
BITMAP
07C0
0FC0
1FC0
3FC0
7F80
FF00
FE00
FC00
F800
F000
ENDCHAR
STARTCHAR 002D
ENCODING 45
SWIDTH 403 0
DWIDTH 37 0
BBX 25 6 6 29
BITMAP
3FFFFE00
7FFFFF00
FFFFFF80
FFFFFF80
7FFFFF00
3FFFFE00
ENDCHAR
STARTCHAR 002E
ENCODING 46
SWIDTH 185 0
DWIDTH 17 0
BBX 5 9 6 0
BITMAP
20
70
F8
F8
F8
F8
F8
70
20
ENDCHAR
STARTCHAR 002F
ENCODING 47
SWIDTH 545 0
DWIDTH 50 0
BBX 38 63 6 0
BITMAP
0000000038
000000007C
00000000FC
00000000FC
00000001FC
00000003F8
00000003F8
00000007F0
00000007E0
0000000FE0
0000000FC0
0000001FC0
0000003F80
0000003F80
0000007F00
0000007E00
000000FE00
000001FC00
000001FC00
000003F800
000003F800
000007F000
000007E000
00000FE000
00001FC000
00001FC000
00001F8000
00001F8000
00001F0000
00000C0000
0000000000
0000000000
0000000000
0001C00000
0003E00000
0007E00000
000FE00000
000FE00000
001FC00000
001FC00000
003F800000
003F000000
007F000000
00FE000000
00FE000000
01FC000000
01FC000000
03F8000000
03F0000000
07F0000000
0FE0000000
0FE0000000
1FC0000000
1F80000000
3F80000000
3F00000000
7F00000000
FE00000000
FE00000000
FC00000000
F800000000
F800000000
C000000000
ENDCHAR
STARTCHAR 0030
ENCODING 48
SWIDTH 501 0
DWIDTH 46 0
BBX 35 64 6 0
BITMAP
03FFFFF000
07FFFFF800
0FFFFFFC00
0FFFFFFC00
07FFFFF800
63FFFFF180
F0000003C0
F8000007E0
F8000007E0
F8000007E0
F8000007E0
F8000007E0
F8000007E0
F8000007E0
F8000007E0
F8000007E0
F8000007E0
F8000007E0
F8000007E0
F8000007E0
F8000007E0
F8000007E0
F8000007E0
F8000007E0
F8000007E0
F8000007E0
F8000007E0
F8000007E0
F8000003C0
7000000180
2000000000
0000000000
0000000000
0000000000
6000000180
F8000003C0
F8000007E0
F8000007E0
F8000007E0
F8000007E0
F8000007E0
F8000007E0
F8000007E0
F8000007E0
F8000007E0
F8000007E0
F8000007E0
F8000007E0
F8000007E0
F8000007E0
F8000007E0
F8000007E0
F8000007E0
F8000007E0
F8000007E0
F8000007E0
F8000007E0
F0000003C0
63FFFFF180
07FFFFF800
0FFFFFFC00
0FFFFFFC00
07FFFFF800
03FFFFF000
ENDCHAR
STARTCHAR 0031
ENCODING 49
SWIDTH 185 0
DWIDTH 17 0
BBX 5 64 6 0
BITMAP
20
70
F8
F8
F8
F8
F8
F8
F8
F8
F8
F8
F8
F8
F8
F8
F8
F8
F8
F8
F8
F8
F8
F8
F8
F8
F8
F8
70
20
00
00
00
20
70
F8
F8
F8
F8
F8
F8
F8
F8
F8
F8
F8
F8
F8
F8
F8
F8
F8
F8
F8
F8
F8
F8
F8
F8
F8
F8
F8
70
20
ENDCHAR
STARTCHAR 0032
ENCODING 50
SWIDTH 501 0
DWIDTH 46 0
BBX 35 64 6 0
BITMAP
03FFFFF000
07FFFFF800
0FFFFFFC00
0FFFFFFC00
07FFFFF800
03FFFFF180
00000003C0
00000007E0
00000007E0
00000007E0
00000007E0
00000007E0
00000007E0
00000007E0
00000007E0
00000007E0
00000007E0
00000007E0
00000007E0
00000007E0
00000007E0
00000007E0
00000007E0
00000007E0
00000007E0
00000007E0
00000007E0
00000007E0
00000003C0
03FFFFF180
07FFFFF800
0FFFFFFC00
0FFFFFFC00
07FFFFF800
63FFFFF000
F000000000
F800000000
F800000000
F800000000
F800000000
F800000000
F800000000
F800000000
F800000000
F800000000
F800000000
F800000000
F800000000
F800000000
F800000000
F800000000
F800000000
F800000000
F800000000
F800000000
F800000000
F800000000
F000000000
63FFFFF000
07FFFFF800
0FFFFFFC00
0FFFFFFC00
07FFFFF800
03FFFFF000
ENDCHAR
STARTCHAR 0033
ENCODING 51
SWIDTH 458 0
DWIDTH 42 0
BBX 30 64 6 0
BITMAP
3FFFFE00
7FFFFF00
FFFFFF80
FFFFFF80
7FFFFF00
3FFFFE30
00000078
000000FC
000000FC
000000FC
000000FC
000000FC
000000FC
000000FC
000000FC
000000FC
000000FC
000000FC
000000FC
000000FC
000000FC
000000FC
000000FC
000000FC
000000FC
000000FC
000000FC
000000FC
00000078
3FFFFE30
7FFFFF00
FFFFFF80
FFFFFF80
7FFFFF00
3FFFFE30
00000078
000000FC
000000FC
000000FC
000000FC
000000FC
000000FC
000000FC
000000FC
000000FC
000000FC
000000FC
000000FC
000000FC
000000FC
000000FC
000000FC
000000FC
000000FC
000000FC
000000FC
000000FC
00000078
3FFFFE30
7FFFFF00
FFFFFF80
FFFFFF80
7FFFFF00
3FFFFE00
ENDCHAR
STARTCHAR 0034
ENCODING 52
SWIDTH 501 0
DWIDTH 46 0
BBX 35 64 6 0
BITMAP
2000000100
7000000380
F8000007C0
F8000007E0
F8000007E0
F8000007E0
F8000007E0
F8000007E0
F8000007E0
F8000007E0
F8000007E0
F8000007E0
F8000007E0
F8000007E0
F8000007E0
F8000007E0
F8000007E0
F8000007E0
F8000007E0
F8000007E0
F8000007E0
F8000007E0
F8000007E0
F8000007E0
F8000007E0
F8000007E0
F8000007E0
F8000007E0
F0000003C0
63FFFFF180
07FFFFF800
0FFFFFFC00
0FFFFFFC00
07FFFFF800
03FFFFF180
00000003C0
00000007E0
00000007E0
00000007E0
00000007E0
00000007E0
00000007E0
00000007E0
00000007E0
00000007E0
00000007E0
00000007E0
00000007E0
00000007E0
00000007E0
00000007E0
00000007E0
00000007E0
00000007E0
00000007E0
00000007E0
00000007E0
00000007E0
00000007E0
00000007E0
00000007E0
00000007C0
0000000380
0000000100
ENDCHAR
STARTCHAR 0035
ENCODING 53
SWIDTH 501 0
DWIDTH 46 0
BBX 35 64 6 0
BITMAP
03FFFFF000
07FFFFF800
0FFFFFFC00
0FFFFFFC00
07FFFFF800
63FFFFF000
F000000000
F800000000
F800000000
F800000000
F800000000
F800000000
F800000000
F800000000
F800000000
F800000000
F800000000
F800000000
F800000000
F800000000
F800000000
F800000000
F800000000
F800000000
F800000000
F800000000
F800000000
F800000000
F000000000
63FFFFF000
07FFFFF800
0FFFFFFC00
0FFFFFFC00
07FFFFF800
03FFFFF180
00000003C0
00000007E0
00000007E0
00000007E0
00000007E0
00000007E0
00000007E0
00000007E0
00000007E0
00000007E0
00000007E0
00000007E0
00000007E0
00000007E0
00000007E0
00000007E0
00000007E0
00000007E0
00000007E0
00000007E0
00000007E0
00000007E0
00000003C0
03FFFFF180
07FFFFF800
0FFFFFFC00
0FFFFFFC00
07FFFFF800
03FFFFF000
ENDCHAR
STARTCHAR 0036
ENCODING 54
SWIDTH 501 0
DWIDTH 46 0
BBX 35 64 6 0
BITMAP
03FFFFF000
07FFFFF800
0FFFFFFC00
0FFFFFFC00
07FFFFF800
63FFFFF000
F000000000
F800000000
F800000000
F800000000
F800000000
F800000000
F800000000
F800000000
F800000000
F800000000
F800000000
F800000000
F800000000
F800000000
F800000000
F800000000
F800000000
F800000000
F800000000
F800000000
F800000000
F800000000
F000000000
63FFFFF000
07FFFFF800
0FFFFFFC00
0FFFFFFC00
07FFFFF800
63FFFFF180
F0000003C0
F8000007E0
F8000007E0
F8000007E0
F8000007E0
F8000007E0
F8000007E0
F8000007E0
F8000007E0
F8000007E0
F8000007E0
F8000007E0
F8000007E0
F8000007E0
F8000007E0
F8000007E0
F8000007E0
F8000007E0
F8000007E0
F8000007E0
F8000007E0
F8000007E0
F0000003C0
63FFFFF180
07FFFFF800
0FFFFFFC00
0FFFFFFC00
07FFFFF800
03FFFFF000
ENDCHAR
STARTCHAR 0037
ENCODING 55
SWIDTH 458 0
DWIDTH 42 0
BBX 30 64 6 0
BITMAP
3FFFFE00
7FFFFF00
FFFFFF80
FFFFFF80
7FFFFF00
3FFFFE30
00000078
000000FC
000000FC
000000FC
000000FC
000000FC
000000FC
000000FC
000000FC
000000FC
000000FC
000000FC
000000FC
000000FC
000000FC
000000FC
000000FC
000000FC
000000FC
000000FC
000000FC
000000FC
00000078
00000030
00000000
00000000
00000000
00000000
00000030
00000078
000000FC
000000FC
000000FC
000000FC
000000FC
000000FC
000000FC
000000FC
000000FC
000000FC
000000FC
000000FC
000000FC
000000FC
000000FC
000000FC
000000FC
000000FC
000000FC
000000FC
000000FC
000000FC
000000FC
000000FC
000000FC
0000007C
00000038
00000010
ENDCHAR
STARTCHAR 0038
ENCODING 56
SWIDTH 501 0
DWIDTH 46 0
BBX 35 64 6 0
BITMAP
03FFFFF000
07FFFFF800
0FFFFFFC00
0FFFFFFC00
07FFFFF800
63FFFFF180
F0000003C0
F8000007E0
F8000007E0
F8000007E0
F8000007E0
F8000007E0
F8000007E0
F8000007E0
F8000007E0
F8000007E0
F8000007E0
F8000007E0
F8000007E0
F8000007E0
F8000007E0
F8000007E0
F8000007E0
F8000007E0
F8000007E0
F8000007E0
F8000007E0
F8000007E0
F0000003C0
63FFFFF180
07FFFFF800
0FFFFFFC00
0FFFFFFC00
07FFFFF800
63FFFFF180
F0000003C0
F8000007E0
F8000007E0
F8000007E0
F8000007E0
F8000007E0
F8000007E0
F8000007E0
F8000007E0
F8000007E0
F8000007E0
F8000007E0
F8000007E0
F8000007E0
F8000007E0
F8000007E0
F8000007E0
F8000007E0
F8000007E0
F8000007E0
F8000007E0
F8000007E0
F0000003C0
63FFFFF180
07FFFFF800
0FFFFFFC00
0FFFFFFC00
07FFFFF800
03FFFFF000
ENDCHAR
STARTCHAR 0039
ENCODING 57
SWIDTH 501 0
DWIDTH 46 0
BBX 35 64 6 0
BITMAP
03FFFFF000
07FFFFF800
0FFFFFFC00
0FFFFFFC00
07FFFFF800
63FFFFF180
F0000003C0
F8000007E0
F8000007E0
F8000007E0
F8000007E0
F8000007E0
F8000007E0
F8000007E0
F8000007E0
F8000007E0
F8000007E0
F8000007E0
F8000007E0
F8000007E0
F8000007E0
F8000007E0
F8000007E0
F8000007E0
F8000007E0
F8000007E0
F8000007E0
F8000007E0
F0000003C0
63FFFFF180
07FFFFF800
0FFFFFFC00
0FFFFFFC00
07FFFFF800
03FFFFF180
00000003C0
00000007E0
00000007E0
00000007E0
00000007E0
00000007E0
00000007E0
00000007E0
00000007E0
00000007E0
00000007E0
00000007E0
00000007E0
00000007E0
00000007E0
00000007E0
00000007E0
00000007E0
00000007E0
00000007E0
00000007E0
00000007E0
00000003C0
03FFFFF180
07FFFFF800
0FFFFFFC00
0FFFFFFC00
07FFFFF800
03FFFFF000
ENDCHAR
STARTCHAR 003A
ENCODING 58
SWIDTH 185 0
DWIDTH 17 0
BBX 5 27 6 0
BITMAP
20
70
F8
F8
F8
F8
F8
70
20
00
00
00
00
00
00
00
00
00
20
70
F8
F8
F8
F8
F8
70
20
ENDCHAR
STARTCHAR 003C
ENCODING 60
SWIDTH 294 0
DWIDTH 27 0
BBX 15 64 6 0
BITMAP
000C
003C
007E
007E
007E
00FC
00FC
01FC
01F8
01F8
03F0
03F0
07F0
07E0
07E0
0FC0
0FC0
1FC0
1F80
1F80
3F00
3F00
7F00
7E00
7E00
FC00
FC00
FC00
F800
7000
4000
0000
0000
4000
7000
F800
FC00
FC00
FC00
7E00
7E00
7F00
3F00
3F00
1F80
1F80
1FC0
0FC0
0FC0
07E0
07E0
07F0
03F0
03F0
01F8
01F8
01FC
00FC
00FC
007E
007E
007E
003C
000C
ENDCHAR
STARTCHAR 003D
ENCODING 61
SWIDTH 556 0
DWIDTH 51 0
BBX 39 22 6 14
BITMAP
3FFFFFFFF8
7FFFFFFFFC
FFFFFFFFFE
FFFFFFFFFE
7FFFFFFFFC
3FFFFFFFF8
0000000000
0000000000
0000000000
0000000000
0000000000
0000000000
0000000000
0000000000
0000000000
0000000000
3FFFFFFFF8
7FFFFFFFFC
FFFFFFFFFE
FFFFFFFFFE
7FFFFFFFFC
3FFFFFFFF8
ENDCHAR
STARTCHAR 003E
ENCODING 62
SWIDTH 294 0
DWIDTH 27 0
BBX 15 64 6 0
BITMAP
4000
7800
F800
FC00
FC00
FC00
7E00
7E00
7F00
3F00
3F00
1F80
1F80
1FC0
0FC0
0FC0
07E0
07E0
07F0
03F0
03F0
01F8
01F8
01FC
00FC
00FC
007E
007E
007E
003C
000C
0000
0000
000C
003C
007E
007E
007E
00FC
00FC
01FC
01F8
01F8
03F0
03F0
07F0
07E0
07E0
0FC0
0FC0
1FC0
1F80
1F80
3F80
3F00
7F00
7E00
7E00
FE00
FC00
FC00
F800
7800
4000
ENDCHAR
STARTCHAR 003F
ENCODING 63
SWIDTH 501 0
DWIDTH 46 0
BBX 35 64 6 0
BITMAP
03FFFFF000
07FFFFF800
0FFFFFFC00
0FFFFFFC00
07FFFFF800
03FFFFF180
00000003C0
00000007E0
00000007E0
00000007E0
00000007E0
00000007E0
00000007E0
00000007E0
00000007E0
00000007E0
00000007E0
00000007E0
00000007E0
00000007E0
00000007E0
00000007E0
00000007E0
00000007E0
00000007E0
00000007E0
00000007E0
00000007E0
00000003C0
03FFFFF180
07FFFFF800
0FFFFFFC00
0FFFFFFC00
07FFFFF800
63FFFFF000
F000000000
F800000000
F800000000
F800000000
F800000000
F800000000
F800000000
F800000000
F800000000
F800000000
F800000000
F800000000
F800000000
F800000000
F800000000
F800000000
7000000000
2000000000
0000000000
0000000000
2000000000
7000000000
F800000000
F800000000
F800000000
F800000000
F800000000
7000000000
2000000000
ENDCHAR
STARTCHAR 0040
ENCODING 64
SWIDTH 501 0
DWIDTH 46 0
BBX 35 64 6 0
BITMAP
03FFFFF000
07FFFFF800
0FFFFFFC00
0FFFFFFC00
07FFFFF800
63FFFFF180
F0000003C0
F8000007E0
F8000007E0
F8000007E0
F8000007E0
F8000007E0
F8000007E0
F8000007E0
F8000007E0
F8007FF7E0
F800FFF7E0
F801FFF7E0
F801FFF7E0
F800FFF7E0
F80C7FF7E0
F81E0007E0
F83F0007E0
F83F0007E0
F83F0007E0
F83F0007E0
F83F0007E0
F83F0007E0
F83F0007C0
703F000380
203F000100
003F000000
003F000000
003F000000
203F000180
703F0003C0
F83F0007E0
F83F0007E0
F83F0007E0
F83F0007E0
F83F0007E0
F83F0007E0
F83F0007E0
F81E0003C0
F80C7FF180
F800FFF800
F801FFFC00
F801FFFC00
F800FFF800
F8007FF000
F800000000
F800000000
F800000000
F800000000
F800000000
F800000000
F800000000
F000000000
63FFFFF000
07FFFFF800
0FFFFFFC00
0FFFFFFC00
07FFFFF800
03FFFFF000
ENDCHAR
STARTCHAR 0041
ENCODING 65
SWIDTH 501 0
DWIDTH 46 0
BBX 35 64 6 0
BITMAP
03FFFFF000
07FFFFF800
0FFFFFFC00
0FFFFFFC00
07FFFFF800
63FFFFF180
F0000003C0
F8000007E0
F8000007E0
F8000007E0
F8000007E0
F8000007E0
F8000007E0
F8000007E0
F8000007E0
F8000007E0
F8000007E0
F8000007E0
F8000007E0
F8000007E0
F8000007E0
F8000007E0
F8000007E0
F8000007E0
F8000007E0
F8000007E0
F8000007E0
F8000007E0
F0000003C0
63FFFFF180
07FFFFF800
0FFFFFFC00
0FFFFFFC00
07FFFFF800
63FFFFF180
F0000003C0
F8000007E0
F8000007E0
F8000007E0
F8000007E0
F8000007E0
F8000007E0
F8000007E0
F8000007E0
F8000007E0
F8000007E0
F8000007E0
F8000007E0
F8000007E0
F8000007E0
F8000007E0
F8000007E0
F8000007E0
F8000007E0
F8000007E0
F8000007E0
F8000007E0
F8000007E0
F8000007E0
F8000007E0
F8000007E0
F8000007C0
7000000380
2000000100
ENDCHAR
STARTCHAR 0042
ENCODING 66
SWIDTH 501 0
DWIDTH 46 0
BBX 35 64 6 0
BITMAP
7FFFFFF000
3FFFFFF800
9FFFFFFC00
CFFFFFFC00
E7FFFFF800
E3FFFFF180
F0000003C0
F8000007E0
F8000007E0
F8000007E0
F8000007E0
F8000007E0
F8000007E0
F8000007E0
F8000007E0
F8000007E0
F8000007E0
F8000007E0
F8000007E0
F8000007E0
F8000007E0
F8000007E0
F8000007E0
F8000007E0
F8000007E0
F8000007E0
F8000007E0
F8000007E0
F0000003C0
63FFFFF180
07FFFFF800
0FFFFFFC00
0FFFFFFC00
07FFFFF800
63FFFFF180
F0000003C0
F8000007E0
F8000007E0
F8000007E0
F8000007E0
F8000007E0
F8000007E0
F8000007E0
F8000007E0
F8000007E0
F8000007E0
F8000007E0
F8000007E0
F8000007E0
F8000007E0
F8000007E0
F8000007E0
F8000007E0
F8000007E0
F8000007E0
F8000007E0
F8000007E0
F0000003C0
E3FFFFF180
C7FFFFF800
CFFFFFFC00
9FFFFFFC00
3FFFFFF800
7FFFFFF000
ENDCHAR
STARTCHAR 0043
ENCODING 67
SWIDTH 458 0
DWIDTH 42 0
BBX 30 64 6 0
BITMAP
03FFFFF0
07FFFFF8
0FFFFFFC
0FFFFFFC
07FFFFF8
63FFFFF0
F0000000
F8000000
F8000000
F8000000
F8000000
F8000000
F8000000
F8000000
F8000000
F8000000
F8000000
F8000000
F8000000
F8000000
F8000000
F8000000
F8000000
F8000000
F8000000
F8000000
F8000000
F8000000
F8000000
70000000
20000000
00000000
00000000
20000000
70000000
F8000000
F8000000
F8000000
F8000000
F8000000
F8000000
F8000000
F8000000
F8000000
F8000000
F8000000
F8000000
F8000000
F8000000
F8000000
F8000000
F8000000
F8000000
F8000000
F8000000
F8000000
F8000000
F0000000
63FFFFF0
07FFFFF8
0FFFFFFC
0FFFFFFC
07FFFFF8
03FFFFF0
ENDCHAR
STARTCHAR 0044
ENCODING 68
SWIDTH 501 0
DWIDTH 46 0
BBX 35 64 6 0
BITMAP
7FFFFFF000
3FFFFFF800
9FFFFFFC00
CFFFFFFC00
E7FFFFF800
E3FFFFF180
F0000003C0
F8000007E0
F8000007E0
F8000007E0
F8000007E0
F8000007E0
F8000007E0
F8000007E0
F8000007E0
F8000007E0
F8000007E0
F8000007E0
F8000007E0
F8000007E0
F8000007E0
F8000007E0
F8000007E0
F8000007E0
F8000007E0
F8000007E0
F8000007E0
F8000007E0
F8000003C0
7000000180
2000000000
0000000000
0000000000
2000000000
7000000180
F8000003C0
F8000007E0
F8000007E0
F8000007E0
F8000007E0
F8000007E0
F8000007E0
F8000007E0
F8000007E0
F8000007E0
F8000007E0
F8000007E0
F8000007E0
F8000007E0
F8000007E0
F8000007E0
F8000007E0
F8000007E0
F8000007E0
F8000007E0
F8000007E0
F8000007E0
F0000003C0
E3FFFFF180
C7FFFFF800
CFFFFFFC00
9FFFFFFC00
3FFFFFF800
7FFFFFF000
ENDCHAR
STARTCHAR 0045
ENCODING 69
SWIDTH 458 0
DWIDTH 42 0
BBX 30 64 6 0
BITMAP
03FFFFF0
07FFFFF8
0FFFFFFC
0FFFFFFC
07FFFFF8
63FFFFF0
F0000000
F8000000
F8000000
F8000000
F8000000
F8000000
F8000000
F8000000
F8000000
F8000000
F8000000
F8000000
F8000000
F8000000
F8000000
F8000000
F8000000
F8000000
F8000000
F8000000
F8000000
F8000000
F0000000
63FFFFF0
07FFFFF8
0FFFFFFC
0FFFFFFC
07FFFFF8
63FFFFF0
F0000000
F8000000
F8000000
F8000000
F8000000
F8000000
F8000000
F8000000
F8000000
F8000000
F8000000
F8000000
F8000000
F8000000
F8000000
F8000000
F8000000
F8000000
F8000000
F8000000
F8000000
F8000000
F0000000
63FFFFF0
07FFFFF8
0FFFFFFC
0FFFFFFC
07FFFFF8
03FFFFF0
ENDCHAR
STARTCHAR 0046
ENCODING 70
SWIDTH 458 0
DWIDTH 42 0
BBX 30 64 6 0
BITMAP
03FFFFF0
07FFFFF8
0FFFFFFC
0FFFFFFC
07FFFFF8
63FFFFF0
F0000000
F8000000
F8000000
F8000000
F8000000
F8000000
F8000000
F8000000
F8000000
F8000000
F8000000
F8000000
F8000000
F8000000
F8000000
F8000000
F8000000
F8000000
F8000000
F8000000
F8000000
F8000000
F0000000
63FFFFF0
07FFFFF8
0FFFFFFC
0FFFFFFC
07FFFFF8
63FFFFF0
F0000000
F8000000
F8000000
F8000000
F8000000
F8000000
F8000000
F8000000
F8000000
F8000000
F8000000
F8000000
F8000000
F8000000
F8000000
F8000000
F8000000
F8000000
F8000000
F8000000
F8000000
F8000000
F8000000
F8000000
F8000000
F8000000
F8000000
70000000
20000000
ENDCHAR
STARTCHAR 0047
ENCODING 71
SWIDTH 501 0
DWIDTH 46 0
BBX 35 64 6 0
BITMAP
03FFFFF000
07FFFFF800
0FFFFFFC00
0FFFFFFC00
07FFFFF800
63FFFFF000
F000000000
F800000000
F800000000
F800000000
F800000000
F800000000
F800000000
F800000000
F800000000
F800000000
F800000000
F800000000
F800000000
F800000000
F800000000
F800000000
F800000000
F800000000
F800000000
F800000000
F800000000
F800000000
F000000000
6007FFF000
000FFFF800
001FFFFC00
001FFFFC00
000FFFF800
6007FFF180
F0000003C0
F8000007E0
F8000007E0
F8000007E0
F8000007E0
F8000007E0
F8000007E0
F8000007E0
F8000007E0
F8000007E0
F8000007E0
F8000007E0
F8000007E0
F8000007E0
F8000007E0
F8000007E0
F8000007E0
F8000007E0
F8000007E0
F8000007E0
F8000007E0
F8000007E0
F0000003C0
63FFFFF180
07FFFFF800
0FFFFFFC00
0FFFFFFC00
07FFFFF800
03FFFFF000
ENDCHAR
STARTCHAR 0048
ENCODING 72
SWIDTH 501 0
DWIDTH 46 0
BBX 35 64 6 0
BITMAP
2000000100
7000000380
F8000007C0
F8000007E0
F8000007E0
F8000007E0
F8000007E0
F8000007E0
F8000007E0
F8000007E0
F8000007E0
F8000007E0
F8000007E0
F8000007E0
F8000007E0
F8000007E0
F8000007E0
F8000007E0
F8000007E0
F8000007E0
F8000007E0
F8000007E0
F8000007E0
F8000007E0
F8000007E0
F8000007E0
F8000007E0
F8000007E0
F0000003C0
63FFFFF180
07FFFFF800
0FFFFFFC00
0FFFFFFC00
07FFFFF800
63FFFFF180
F0000003C0
F8000007E0
F8000007E0
F8000007E0
F8000007E0
F8000007E0
F8000007E0
F8000007E0
F8000007E0
F8000007E0
F8000007E0
F8000007E0
F8000007E0
F8000007E0
F8000007E0
F8000007E0
F8000007E0
F8000007E0
F8000007E0
F8000007E0
F8000007E0
F8000007E0
F8000007E0
F8000007E0
F8000007E0
F8000007E0
F8000007C0
7000000380
2000000100
ENDCHAR
STARTCHAR 0049
ENCODING 73
SWIDTH 185 0
DWIDTH 17 0
BBX 5 64 6 0
BITMAP
20
70
F8
F8
F8
F8
F8
F8
F8
F8
F8
F8
F8
F8
F8
F8
F8
F8
F8
F8
F8
F8
F8
F8
F8
F8
F8
F8
F8
70
20
00
00
00
60
F0
F8
F8
F8
F8
F8
F8
F8
F8
F8
F8
F8
F8
F8
F8
F8
F8
F8
F8
F8
F8
F8
F8
F8
F8
F8
F8
70
20
ENDCHAR
STARTCHAR 004A
ENCODING 74
SWIDTH 501 0
DWIDTH 46 0
BBX 35 64 6 0
BITMAP
0000000100
0000000380
00000007C0
00000007E0
00000007E0
00000007E0
00000007E0
00000007E0
00000007E0
00000007E0
00000007E0
00000007E0
00000007E0
00000007E0
00000007E0
00000007E0
00000007E0
00000007E0
00000007E0
00000007E0
00000007E0
00000007E0
00000007E0
00000007E0
00000007E0
00000007E0
00000007E0
00000007E0
00000003C0
0000000180
0000000000
0000000000
0000000000
2000000000
7000000180
F8000003C0
F8000007E0
F8000007E0
F8000007E0
F8000007E0
F8000007E0
F8000007E0
F8000007E0
F8000007E0
F8000007E0
F8000007E0
F8000007E0
F8000007E0
F8000007E0
F8000007E0
F8000007E0
F8000007E0
F8000007E0
F8000007E0
F8000007E0
F8000007E0
F8000007E0
F0000003C0
63FFFFF180
07FFFFF800
0FFFFFFC00
0FFFFFFC00
07FFFFF800
03FFFFF000
ENDCHAR
STARTCHAR 004B
ENCODING 75
SWIDTH 501 0
DWIDTH 46 0
BBX 35 64 6 0
BITMAP
20000003E0
70000007E0
F800000FE0
F800001FE0
F800003FC0
F800007F80
F80000FF00
F80001FE00
F80003FC00
F80007F800
F8000FF000
F8001FE000
F8003FC000
F8007F8000
F800FF0000
F801FE0000
F803FC0000
F807F80000
F80FF00000
F81FE00000
F83FC00000
F87F800000
F8FF000000
F8FE000000
F8FC000000
F8F8000000
F8F0000000
F800000000
F000000000
63FFFFF000
07FFFFF800
0FFFFFFC00
0FFFFFFC00
07FFFFF800
63FFFFF180
F0000003C0
F8000007E0
F8000007E0
F8000007E0
F8000007E0
F8000007E0
F8000007E0
F8000007E0
F8000007E0
F8000007E0
F8000007E0
F8000007E0
F8000007E0
F8000007E0
F8000007E0
F8000007E0
F8000007E0
F8000007E0
F8000007E0
F8000007E0
F8000007E0
F8000007E0
F8000007E0
F8000007E0
F8000007E0
F8000007E0
F8000007C0
7000000380
2000000100
ENDCHAR
STARTCHAR 004C
ENCODING 76
SWIDTH 458 0
DWIDTH 42 0
BBX 30 64 6 0
BITMAP
20000000
70000000
F8000000
F8000000
F8000000
F8000000
F8000000
F8000000
F8000000
F8000000
F8000000
F8000000
F8000000
F8000000
F8000000
F8000000
F8000000
F8000000
F8000000
F8000000
F8000000
F8000000
F8000000
F8000000
F8000000
F8000000
F8000000
F8000000
F0000000
60000000
00000000
00000000
00000000
20000000
70000000
F8000000
F8000000
F8000000
F8000000
F8000000
F8000000
F8000000
F8000000
F8000000
F8000000
F8000000
F8000000
F8000000
F8000000
F8000000
F8000000
F8000000
F8000000
F8000000
F8000000
F8000000
F8000000
F0000000
63FFFFF0
07FFFFF8
0FFFFFFC
0FFFFFFC
07FFFFF8
03FFFFF0
ENDCHAR
STARTCHAR 004D
ENCODING 77
SWIDTH 687 0
DWIDTH 63 0
BBX 51 64 6 0
BITMAP
03FFFC07FFF800
07FFFE0FFFFC00
0FFFFF1FFFFE00
0FFFFF1FFFFE00
07FFFE0FFFFC00
23FFFC47FFF880
700000E00001C0
F80001F00003E0
F80001F00003E0
F80001F00003E0
F80001F00003E0
F80001F00003E0
F80001F00003E0
F80001F00003E0
F80001F00003E0
F80001F00003E0
F80001F00003E0
F80001F00003E0
F80001F00003E0
F80001F00003E0
F80001F00003E0
F80001F00003E0
F80001F00003E0
F80001F00003E0
F80001F00003E0
F80001F00003E0
F80001F00003E0
F80001F00003E0
F80001F00003E0
700000E00001C0
20000040000080
00000000000000
00000000000000
00000000000000
20000000000080
700000000001C0
F80000000003E0
F80000000003E0
F80000000003E0
F80000000003E0
F80000000003E0
F80000000003E0
F80000000003E0
F80000000003E0
F80000000003E0
F80000000003E0
F80000000003E0
F80000000003E0
F80000000003E0
F80000000003E0
F80000000003E0
F80000000003E0
F80000000003E0
F80000000003E0
F80000000003E0
F80000000003E0
F80000000003E0
F80000000003E0
F80000000003E0
F80000000003E0
F80000000003E0
F80000000003E0
700000000001C0
20000000000080
ENDCHAR
STARTCHAR 004E
ENCODING 78
SWIDTH 501 0
DWIDTH 46 0
BBX 35 64 6 0
BITMAP
03FFFFF000
07FFFFF800
0FFFFFFC00
0FFFFFFC00
07FFFFF800
63FFFFF180
F0000003C0
F8000007E0
F8000007E0
F8000007E0
F8000007E0
F8000007E0
F8000007E0
F8000007E0
F8000007E0
F8000007E0
F8000007E0
F8000007E0
F8000007E0
F8000007E0
F8000007E0
F8000007E0
F8000007E0
F8000007E0
F8000007E0
F8000007E0
F8000007E0
F8000007E0
F8000003C0
7000000180
2000000000
0000000000
0000000000
0000000000
6000000180
F0000003C0
F8000007E0
F8000007E0
F8000007E0
F8000007E0
F8000007E0
F8000007E0
F8000007E0
F8000007E0
F8000007E0
F8000007E0
F8000007E0
F8000007E0
F8000007E0
F8000007E0
F8000007E0
F8000007E0
F8000007E0
F8000007E0
F8000007E0
F8000007E0
F8000007E0
F8000007E0
F8000007E0
F8000007E0
F8000007E0
F8000007C0
7000000380
2000000100
ENDCHAR
STARTCHAR 004F
ENCODING 79
SWIDTH 501 0
DWIDTH 46 0
BBX 35 64 6 0
BITMAP
03FFFFF000
07FFFFF800
0FFFFFFC00
0FFFFFFC00
07FFFFF800
63FFFFF180
F0000003C0
F8000007E0
F8000007E0
F8000007E0
F8000007E0
F8000007E0
F8000007E0
F8000007E0
F8000007E0
F8000007E0
F8000007E0
F8000007E0
F8000007E0
F8000007E0
F8000007E0
F8000007E0
F8000007E0
F8000007E0
F8000007E0
F8000007E0
F8000007E0
F8000007E0
F8000003C0
7000000180
2000000000
0000000000
0000000000
2000000000
7000000180
F8000003C0
F8000007E0
F8000007E0
F8000007E0
F8000007E0
F8000007E0
F8000007E0
F8000007E0
F8000007E0
F8000007E0
F8000007E0
F8000007E0
F8000007E0
F8000007E0
F8000007E0
F8000007E0
F8000007E0
F8000007E0
F8000007E0
F8000007E0
F8000007E0
F8000007E0
F0000003C0
63FFFFF180
07FFFFF800
0FFFFFFC00
0FFFFFFC00
07FFFFF800
03FFFFF000
ENDCHAR
STARTCHAR 0050
ENCODING 80
SWIDTH 501 0
DWIDTH 46 0
BBX 35 64 6 0
BITMAP
03FFFFF000
07FFFFF800
0FFFFFFC00
0FFFFFFC00
07FFFFF800
63FFFFF180
F0000003C0
F8000007E0
F8000007E0
F8000007E0
F8000007E0
F8000007E0
F8000007E0
F8000007E0
F8000007E0
F8000007E0
F8000007E0
F8000007E0
F8000007E0
F8000007E0
F8000007E0
F8000007E0
F8000007E0
F8000007E0
F8000007E0
F8000007E0
F8000007E0
F8000007E0
F0000003C0
63FFFFF180
07FFFFF800
0FFFFFFC00
0FFFFFFC00
07FFFFF800
63FFFFF000
F000000000
F800000000
F800000000
F800000000
F800000000
F800000000
F800000000
F800000000
F800000000
F800000000
F800000000
F800000000
F800000000
F800000000
F800000000
F800000000
F800000000
F800000000
F800000000
F800000000
F800000000
F800000000
F800000000
F800000000
F800000000
F800000000
F800000000
7000000000
2000000000
ENDCHAR
STARTCHAR 0051
ENCODING 81
SWIDTH 501 0
DWIDTH 46 0
BBX 35 64 6 0
BITMAP
03FFFFF000
07FFFFF800
0FFFFFFC00
0FFFFFFC00
07FFFFF800
63FFFFF180
F0000003C0
F8000007E0
F8000007E0
F8000007E0
F8000007E0
F8000007E0
F8000007E0
F8000007E0
F8000007E0
F8000007E0
F8000007E0
F8000007E0
F8000007E0
F8000007E0
F8000007E0
F8000007E0
F8000007E0
F8000007E0
F8000007E0
F8000007E0
F8000007E0
F8000007E0
F8000003C0
7000000180
2000000000
0000000000
0000000000
2000000000
7000000180
F8000003C0
F8000007E0
F8000007E0
F8000007E0
F8000007E0
F8000007E0
F8000007E0
F8000007E0
F8000007E0
F8000007E0
F8000007E0
F8000007E0
F8000007E0
F8000007E0
F8000007E0
F8000007C0
F800000380
F800007900
F800007C00
F800007E00
F800007F00
F800007F80
F000003FC0
63FFFF9FE0
07FFFFCFE0
0FFFFFE7E0
0FFFFFE3E0
07FFFFC000
03FFFF8000
ENDCHAR
STARTCHAR 0052
ENCODING 82
SWIDTH 501 0
DWIDTH 46 0
BBX 35 64 6 0
BITMAP
03FFFFF000
07FFFFF800
0FFFFFFC00
0FFFFFFC00
07FFFFF800
63FFFFF180
F0000003C0
F8000007E0
F8000007E0
F8000007E0
F8000007E0
F8000007E0
F8000007E0
F8000007E0
F8000007E0
F8000007E0
F8000007E0
F8000007E0
F8000007E0
F8000007E0
F8000007E0
F8000007E0
F8000007E0
F8000007E0
F8000007E0
F8000007E0
F8000007E0
F8000007E0
F0000003C0
63FFFFF180
07FFFFF800
0FFFFFFC00
0FFFFFFC00
07FFFFF800
63FFFFF000
F000000000
F800000000
F8F0000000
F8F8000000
F8FC000000
F8FE000000
F8FF000000
F87F800000
F83FC00000
F81FE00000
F80FF00000
F807F80000
F803FC0000
F801FE0000
F800FF0000
F8007F8000
F8003FC000
F8001FE000
F8000FF000
F80007F800
F80003FC00
F80001FE00
F80000FF00
F800007F80
F800003FC0
F800001FE0
F800000FE0
70000007E0
20000003E0
ENDCHAR
STARTCHAR 0053
ENCODING 83
SWIDTH 501 0
DWIDTH 46 0
BBX 35 64 6 0
BITMAP
03FFFFF000
07FFFFF800
0FFFFFFC00
0FFFFFFC00
07FFFFF800
63FFFFF000
F000000000
F800000000
F800000000
F800000000
F800000000
F800000000
F800000000
F800000000
F800000000
F800000000
F800000000
F800000000
F800000000
F800000000
F800000000
F800000000
F800000000
F800000000
F800000000
F800000000
F800000000
F800000000
F000000000
63FFFFF000
07FFFFF800
0FFFFFFC00
0FFFFFFC00
07FFFFF800
03FFFFF180
00000003C0
00000007E0
00000007E0
00000007E0
00000007E0
00000007E0
00000007E0
00000007E0
00000007E0
00000007E0
00000007E0
00000007E0
00000007E0
00000007E0
00000007E0
00000007E0
00000007E0
00000007E0
00000007E0
00000007E0
00000007E0
00000007E0
00000003C0
03FFFFF180
07FFFFF800
0FFFFFFC00
0FFFFFFC00
07FFFFF800
03FFFFF000
ENDCHAR
STARTCHAR 0054
ENCODING 84
SWIDTH 589 0
DWIDTH 54 0
BBX 42 64 6 0
BITMAP
3FFF807FFF00
7FFFC0FFFF80
FFFFE1FFFFC0
FFFFE1FFFFC0
7FFFC0FFFF80
3FFF8C7FFF00
00001E000000
00003F000000
00003F000000
00003F000000
00003F000000
00003F000000
00003F000000
00003F000000
00003F000000
00003F000000
00003F000000
00003F000000
00003F000000
00003F000000
00003F000000
00003F000000
00003F000000
00003F000000
00003F000000
00003F000000
00003F000000
00003F000000
00001E000000
00000C000000
000000000000
000000000000
000000000000
000000000000
00000C000000
00001E000000
00003F000000
00003F000000
00003F000000
00003F000000
00003F000000
00003F000000
00003F000000
00003F000000
00003F000000
00003F000000
00003F000000
00003F000000
00003F000000
00003F000000
00003F000000
00003F000000
00003F000000
00003F000000
00003F000000
00003F000000
00003F000000
00003F000000
00003F000000
00003F000000
00003F000000
00003E000000
00001C000000
000008000000
ENDCHAR
STARTCHAR 0055
ENCODING 85
SWIDTH 501 0
DWIDTH 46 0
BBX 35 64 6 0
BITMAP
2000000100
7000000380
F8000007C0
F8000007E0
F8000007E0
F8000007E0
F8000007E0
F8000007E0
F8000007E0
F8000007E0
F8000007E0
F8000007E0
F8000007E0
F8000007E0
F8000007E0
F8000007E0
F8000007E0
F8000007E0
F8000007E0
F8000007E0
F8000007E0
F8000007E0
F8000007E0
F8000007E0
F8000007E0
F8000007E0
F8000007E0
F8000007E0
F0000003C0
6000000180
0000000000
0000000000
0000000000
2000000000
7000000180
F8000003C0
F8000007E0
F8000007E0
F8000007E0
F8000007E0
F8000007E0
F8000007E0
F8000007E0
F8000007E0
F8000007E0
F8000007E0
F8000007E0
F8000007E0
F8000007E0
F8000007E0
F8000007E0
F8000007E0
F8000007E0
F8000007E0
F8000007E0
F8000007E0
F8000007E0
F0000003C0
63FFFFF180
07FFFFF800
0FFFFFFC00
0FFFFFFC00
07FFFFF800
03FFFFF000
ENDCHAR
STARTCHAR 0056
ENCODING 86
SWIDTH 501 0
DWIDTH 46 0
BBX 35 64 6 0
BITMAP
2000000100
7000000380
F8000007C0
F8000007E0
F8000007E0
F8000007E0
F8000007E0
F8000007E0
F8000007E0
F8000007E0
F8000007E0
F8000007E0
F8000007E0
F8000007E0
F8000007E0
F8000007E0
F8000007E0
F8000007E0
F8000007E0
F8000007E0
F8000007E0
F8000007E0
F8000007E0
F8000007E0
F8000007E0
F8000007E0
F8000007E0
F8000007E0
F0000003C0
6000000180
0000000000
0000000000
0000000000
4000000080
78000003C0
F8000007C0
FC00000FE0
FC00000FC0
FC00000FC0
7E00001FC0
7E00001F80
7F00003F80
3F00003F00
3F00003F00
1F80007F00
1F80007E00
1FC000FE00
0FC000FC00
0FC000FC00
07E001FC00
07E001F800
07F001F800
03F003F000
03F003F000
01F807F000
01F807E000
01FC07E000
00FC0FC000
00FC0FC000
007E1FC000
007E1F8000
007E0F8000
003C0F0000
000C0C0000
ENDCHAR
STARTCHAR 0057
ENCODING 87
SWIDTH 687 0
DWIDTH 63 0
BBX 51 64 6 0
BITMAP
20000000000080
700000000001C0
F80000000003E0
F80000000003E0
F80000000003E0
F80000000003E0
F80000000003E0
F80000000003E0
F80000000003E0
F80000000003E0
F80000000003E0
F80000000003E0
F80000000003E0
F80000000003E0
F80000000003E0
F80000000003E0
F80000000003E0
F80000000003E0
F80000000003E0
F80000000003E0
F80000000003E0
F80000000003E0
F80000000003E0
F80000000003E0
F80000000003E0
F80000000003E0
F80000000003E0
F80000000003E0
700000000001C0
20000000000080
00000000000000
00000000000000
00000000000000
20000040000080
700000E00001C0
F80001F00003E0
F80001F00003E0
F80001F00003E0
F80001F00003E0
F80001F00003E0
F80001F00003E0
F80001F00003E0
F80001F00003E0
F80001F00003E0
F80001F00003E0
F80001F00003E0
F80001F00003E0
F80001F00003E0
F80001F00003E0
F80001F00003E0
F80001F00003E0
F80001F00003E0
F80001F00003E0
F80001F00003E0
F80001F00003E0
F80001F00003E0
F80001F00003E0
700000E00001C0
23FFFC47FFF880
07FFFE0FFFFC00
0FFFFF1FFFFE00
0FFFFF1FFFFE00
07FFFE0FFFFC00
03FFFC07FFF800
ENDCHAR
STARTCHAR 0058
ENCODING 88
SWIDTH 501 0
DWIDTH 46 0
BBX 35 64 6 0
BITMAP
4000000080
78000003C0
F8000007C0
FC00000FE0
FC00000FC0
FC00000FC0
7E00001FC0
7E00001F80
7F00003F80
3F00003F00
3F00003F00
1F80007F00
1F80007E00
1FC000FE00
0FC000FC00
0FC000FC00
07E001FC00
07E001F800
07F003F800
03F003F000
03F003F000
01F807F000
01F807E000
01FC07E000
00FC0FC000
00FC0FC000
007E1FC000
007E1F8000
007E0F8000
003C0F0000
000C040000
0000000000
0000000000
000C040000
003C0F0000
007E0F8000
007E1F8000
007E1FC000
00FC0FC000
00FC0FC000
01FC0FE000
01F807E000
01F807F000
03F003F000
03F003F000
07F003F800
07E001F800
07E001FC00
0FC000FC00
0FC000FC00
1FC000FE00
1F80007E00
1F80007F00
3F80003F00
3F00003F00
7F00003F80
7E00001F80
7E00001FC0
FE00000FC0
FC00000FC0
FC00000FE0
F8000007C0
78000003C0
4000000080
ENDCHAR
STARTCHAR 0059
ENCODING 89
SWIDTH 501 0
DWIDTH 46 0
BBX 35 64 6 0
BITMAP
2000000100
7000000380
F8000007C0
F8000007E0
F8000007E0
F8000007E0
F8000007E0
F8000007E0
F8000007E0
F8000007E0
F8000007E0
F8000007E0
F8000007E0
F8000007E0
F8000007E0
F8000007E0
F8000007E0
F8000007E0
F8000007E0
F8000007E0
F8000007E0
F8000007E0
F8000007E0
F8000007E0
F8000007E0
F8000007E0
F8000007E0
F8000007E0
F0000003C0
63FFFFF180
07FFFFF800
0FFFFFFC00
0FFFFFFC00
07FFFFF800
03FFFFF180
00000003C0
00000007E0
00000007E0
00000007E0
00000007E0
00000007E0
00000007E0
00000007E0
00000007E0
00000007E0
00000007E0
00000007E0
00000007E0
00000007E0
00000007E0
00000007E0
00000007E0
00000007E0
00000007E0
00000007E0
00000007E0
00000007E0
00000003C0
03FFFFF180
07FFFFF800
0FFFFFFC00
0FFFFFFC00
07FFFFF800
03FFFFF000
ENDCHAR
STARTCHAR 005A
ENCODING 90
SWIDTH 501 0
DWIDTH 46 0
BBX 34 64 6 0
BITMAP
3FFFFFE000
7FFFFFF000
FFFFFFF800
FFFFFFF800
7FFFFFF000
3FFFFFE000
0000000100
0000000F00
0000001F00
0000001F80
0000003F80
0000007F00
0000007F00
000000FE00
000000FC00
000001FC00
000001F800
000003F800
000007F000
000007F000
00000FE000
00000FC000
00001FC000
00003F8000
00003F8000
00007F0000
00007E0000
00007E0000
00007C0000
00007C0000
0000000000
0000000000
0000000000
0001000000
000F000000
001F800000
001F800000
003F800000
003F000000
007F000000
00FE000000
00FE000000
01FC000000
01FC000000
03F8000000
03F0000000
07F0000000
0FE0000000
0FE0000000
1FC0000000
1F80000000
3F80000000
7F00000000
7F00000000
7E00000000
3C00000000
3800000000
0000000000
01FFFFFF00
03FFFFFF80
07FFFFFFC0
07FFFFFFC0
03FFFFFF80
01FFFFFF00
ENDCHAR
STARTCHAR 005B
ENCODING 91
SWIDTH 381 0
DWIDTH 35 0
BBX 23 64 6 0
BITMAP
7FFFF8
3FFFFC
9FFFFE
CFFFFE
E7FFFC
E3FFF8
F00000
F80000
F80000
F80000
F80000
F80000
F80000
F80000
F80000
F80000
F80000
F80000
F80000
F80000
F80000
F80000
F80000
F80000
F80000
F80000
F80000
F80000
F80000
700000
200000
000000
000000
200000
700000
F80000
F80000
F80000
F80000
F80000
F80000
F80000
F80000
F80000
F80000
F80000
F80000
F80000
F80000
F80000
F80000
F80000
F80000
F80000
F80000
F80000
F80000
F00000
E3FFF8
C7FFFC
CFFFFE
9FFFFE
3FFFFC
7FFFF8
ENDCHAR
STARTCHAR 005C
ENCODING 92
SWIDTH 545 0
DWIDTH 50 0
BBX 38 63 6 0
BITMAP
F000000000
F800000000
FC00000000
FC00000000
FE00000000
7E00000000
7F00000000
3F80000000
3F80000000
1FC0000000
0FC0000000
0FE0000000
07E0000000
07F0000000
03F8000000
03F8000000
01FC000000
00FC000000
00FE000000
007E000000
007F000000
003F800000
003F800000
001FC00000
000FC00000
000FE00000
0007E00000
0007E00000
0003E00000
0000C00000
0000000000
0000000000
0000000000
00001E0000
00001F0000
00001F8000
00001F8000
00001FC000
00000FC000
00000FE000
000007F000
000007F000
000003F800
000001F800
000001FC00
000000FE00
000000FE00
0000007F00
0000007F00
0000003F80
0000001F80
0000001FC0
0000000FE0
0000000FE0
00000007F0
00000003F0
00000003F8
00000001F8
00000001FC
00000000FC
00000000FC
000000007C
0000000018
ENDCHAR
STARTCHAR 005D
ENCODING 93
SWIDTH 381 0
DWIDTH 35 0
BBX 23 64 6 0
BITMAP
3FFFF8
7FFFF0
FFFFF2
FFFFE6
7FFFCE
3FFF9E
00003E
00003E
00003E
00003E
00003E
00003E
00003E
00003E
00003E
00003E
00003E
00003E
00003E
00003E
00003E
00003E
00003E
00003E
00003E
00003E
00003E
00003E
00003E
00001C
000008
000000
000000
000008
00001C
00003E
00003E
00003E
00003E
00003E
00003E
00003E
00003E
00003E
00003E
00003E
00003E
00003E
00003E
00003E
00003E
00003E
00003E
00003E
00003E
00003E
00003E
00001E
3FFF8E
7FFFCE
FFFFE6
FFFFF2
7FFFF0
3FFFF8
ENDCHAR
STARTCHAR 005E
ENCODING 94
SWIDTH 829 0
DWIDTH 76 0
BBX 64 16 6 28
BITMAP
000000300C000000
000001FC7F000000
000007FC7FE00000
00003FFC3FF80000
0000FFFC3FFF0000
0007FFF83FFFC000
001FFFE007FFF800
00FFFF0001FFFE00
03FFFC00003FFFC0
1FFFE000000FFFF0
7FFF80000001FFFC
7FFC000000007FFE
FFF0000000000FFE
FFC00000000003FF
FE000000000000FF
3800000000000018
ENDCHAR
STARTCHAR 005F
ENCODING 95
SWIDTH 621 0
DWIDTH 57 0
BBX 45 6 6 0
BITMAP
3FFFFFFFFFE0
7FFFFFFFFFF0
FFFFFFFFFFF8
FFFFFFFFFFF8
7FFFFFFFFFF0
3FFFFFFFFFE0
ENDCHAR
STARTCHAR 0061
ENCODING 97
SWIDTH 501 0
DWIDTH 46 0
BBX 35 64 6 0
BITMAP
03FFFFF000
07FFFFF800
0FFFFFFC00
0FFFFFFC00
07FFFFF800
63FFFFF180
F0000003C0
F8000007E0
F8000007E0
F8000007E0
F8000007E0
F8000007E0
F8000007E0
F8000007E0
F8000007E0
F8000007E0
F8000007E0
F8000007E0
F8000007E0
F8000007E0
F8000007E0
F8000007E0
F8000007E0
F8000007E0
F8000007E0
F8000007E0
F8000007E0
F8000007E0
F0000003C0
63FFFFF180
07FFFFF800
0FFFFFFC00
0FFFFFFC00
07FFFFF800
63FFFFF180
F0000003C0
F8000007E0
F8000007E0
F8000007E0
F8000007E0
F8000007E0
F8000007E0
F8000007E0
F8000007E0
F8000007E0
F8000007E0
F8000007E0
F8000007E0
F8000007E0
F8000007E0
F8000007E0
F8000007E0
F8000007E0
F8000007E0
F8000007E0
F8000007E0
F8000007E0
F8000007E0
F8000007E0
F8000007E0
F8000007E0
F8000007C0
7000000380
2000000100
ENDCHAR
STARTCHAR 0062
ENCODING 98
SWIDTH 501 0
DWIDTH 46 0
BBX 35 64 6 0
BITMAP
7FFFFFF000
3FFFFFF800
9FFFFFFC00
CFFFFFFC00
E7FFFFF800
E3FFFFF180
F0000003C0
F8000007E0
F8000007E0
F8000007E0
F8000007E0
F8000007E0
F8000007E0
F8000007E0
F8000007E0
F8000007E0
F8000007E0
F8000007E0
F8000007E0
F8000007E0
F8000007E0
F8000007E0
F8000007E0
F8000007E0
F8000007E0
F8000007E0
F8000007E0
F8000007E0
F0000003C0
63FFFFF180
07FFFFF800
0FFFFFFC00
0FFFFFFC00
07FFFFF800
63FFFFF180
F0000003C0
F8000007E0
F8000007E0
F8000007E0
F8000007E0
F8000007E0
F8000007E0
F8000007E0
F8000007E0
F8000007E0
F8000007E0
F8000007E0
F8000007E0
F8000007E0
F8000007E0
F8000007E0
F8000007E0
F8000007E0
F8000007E0
F8000007E0
F8000007E0
F8000007E0
F0000003C0
E3FFFFF180
C7FFFFF800
CFFFFFFC00
9FFFFFFC00
3FFFFFF800
7FFFFFF000
ENDCHAR
STARTCHAR 0063
ENCODING 99
SWIDTH 458 0
DWIDTH 42 0
BBX 30 64 6 0
BITMAP
03FFFFF0
07FFFFF8
0FFFFFFC
0FFFFFFC
07FFFFF8
63FFFFF0
F0000000
F8000000
F8000000
F8000000
F8000000
F8000000
F8000000
F8000000
F8000000
F8000000
F8000000
F8000000
F8000000
F8000000
F8000000
F8000000
F8000000
F8000000
F8000000
F8000000
F8000000
F8000000
F8000000
70000000
20000000
00000000
00000000
20000000
70000000
F8000000
F8000000
F8000000
F8000000
F8000000
F8000000
F8000000
F8000000
F8000000
F8000000
F8000000
F8000000
F8000000
F8000000
F8000000
F8000000
F8000000
F8000000
F8000000
F8000000
F8000000
F8000000
F0000000
63FFFFF0
07FFFFF8
0FFFFFFC
0FFFFFFC
07FFFFF8
03FFFFF0
ENDCHAR
STARTCHAR 0064
ENCODING 100
SWIDTH 501 0
DWIDTH 46 0
BBX 35 64 6 0
BITMAP
7FFFFFF000
3FFFFFF800
9FFFFFFC00
CFFFFFFC00
E7FFFFF800
E3FFFFF180
F0000003C0
F8000007E0
F8000007E0
F8000007E0
F8000007E0
F8000007E0
F8000007E0
F8000007E0
F8000007E0
F8000007E0
F8000007E0
F8000007E0
F8000007E0
F8000007E0
F8000007E0
F8000007E0
F8000007E0
F8000007E0
F8000007E0
F8000007E0
F8000007E0
F8000007E0
F8000003C0
7000000180
2000000000
0000000000
0000000000
2000000000
7000000180
F8000003C0
F8000007E0
F8000007E0
F8000007E0
F8000007E0
F8000007E0
F8000007E0
F8000007E0
F8000007E0
F8000007E0
F8000007E0
F8000007E0
F8000007E0
F8000007E0
F8000007E0
F8000007E0
F8000007E0
F8000007E0
F8000007E0
F8000007E0
F8000007E0
F8000007E0
F0000003C0
E3FFFFF180
C7FFFFF800
CFFFFFFC00
9FFFFFFC00
3FFFFFF800
7FFFFFF000
ENDCHAR
STARTCHAR 0065
ENCODING 101
SWIDTH 458 0
DWIDTH 42 0
BBX 30 64 6 0
BITMAP
03FFFFF0
07FFFFF8
0FFFFFFC
0FFFFFFC
07FFFFF8
63FFFFF0
F0000000
F8000000
F8000000
F8000000
F8000000
F8000000
F8000000
F8000000
F8000000
F8000000
F8000000
F8000000
F8000000
F8000000
F8000000
F8000000
F8000000
F8000000
F8000000
F8000000
F8000000
F8000000
F0000000
63FFFFF0
07FFFFF8
0FFFFFFC
0FFFFFFC
07FFFFF8
63FFFFF0
F0000000
F8000000
F8000000
F8000000
F8000000
F8000000
F8000000
F8000000
F8000000
F8000000
F8000000
F8000000
F8000000
F8000000
F8000000
F8000000
F8000000
F8000000
F8000000
F8000000
F8000000
F8000000
F0000000
63FFFFF0
07FFFFF8
0FFFFFFC
0FFFFFFC
07FFFFF8
03FFFFF0
ENDCHAR
STARTCHAR 0066
ENCODING 102
SWIDTH 458 0
DWIDTH 42 0
BBX 30 64 6 0
BITMAP
03FFFFF0
07FFFFF8
0FFFFFFC
0FFFFFFC
07FFFFF8
63FFFFF0
F0000000
F8000000
F8000000
F8000000
F8000000
F8000000
F8000000
F8000000
F8000000
F8000000
F8000000
F8000000
F8000000
F8000000
F8000000
F8000000
F8000000
F8000000
F8000000
F8000000
F8000000
F8000000
F0000000
63FFFFF0
07FFFFF8
0FFFFFFC
0FFFFFFC
07FFFFF8
63FFFFF0
F0000000
F8000000
F8000000
F8000000
F8000000
F8000000
F8000000
F8000000
F8000000
F8000000
F8000000
F8000000
F8000000
F8000000
F8000000
F8000000
F8000000
F8000000
F8000000
F8000000
F8000000
F8000000
F8000000
F8000000
F8000000
F8000000
F8000000
70000000
20000000
ENDCHAR
STARTCHAR 0067
ENCODING 103
SWIDTH 501 0
DWIDTH 46 0
BBX 35 64 6 0
BITMAP
03FFFFF000
07FFFFF800
0FFFFFFC00
0FFFFFFC00
07FFFFF800
63FFFFF000
F000000000
F800000000
F800000000
F800000000
F800000000
F800000000
F800000000
F800000000
F800000000
F800000000
F800000000
F800000000
F800000000
F800000000
F800000000
F800000000
F800000000
F800000000
F800000000
F800000000
F800000000
F800000000
F000000000
6007FFF000
000FFFF800
001FFFFC00
001FFFFC00
000FFFF800
6007FFF180
F0000003C0
F8000007E0
F8000007E0
F8000007E0
F8000007E0
F8000007E0
F8000007E0
F8000007E0
F8000007E0
F8000007E0
F8000007E0
F8000007E0
F8000007E0
F8000007E0
F8000007E0
F8000007E0
F8000007E0
F8000007E0
F8000007E0
F8000007E0
F8000007E0
F8000007E0
F0000003C0
63FFFFF180
07FFFFF800
0FFFFFFC00
0FFFFFFC00
07FFFFF800
03FFFFF000
ENDCHAR
STARTCHAR 0068
ENCODING 104
SWIDTH 501 0
DWIDTH 46 0
BBX 35 64 6 0
BITMAP
2000000100
7000000380
F8000007C0
F8000007E0
F8000007E0
F8000007E0
F8000007E0
F8000007E0
F8000007E0
F8000007E0
F8000007E0
F8000007E0
F8000007E0
F8000007E0
F8000007E0
F8000007E0
F8000007E0
F8000007E0
F8000007E0
F8000007E0
F8000007E0
F8000007E0
F8000007E0
F8000007E0
F8000007E0
F8000007E0
F8000007E0
F8000007E0
F0000003C0
63FFFFF180
07FFFFF800
0FFFFFFC00
0FFFFFFC00
07FFFFF800
63FFFFF180
F0000003C0
F8000007E0
F8000007E0
F8000007E0
F8000007E0
F8000007E0
F8000007E0
F8000007E0
F8000007E0
F8000007E0
F8000007E0
F8000007E0
F8000007E0
F8000007E0
F8000007E0
F8000007E0
F8000007E0
F8000007E0
F8000007E0
F8000007E0
F8000007E0
F8000007E0
F8000007E0
F8000007E0
F8000007E0
F8000007E0
F8000007C0
7000000380
2000000100
ENDCHAR
STARTCHAR 0069
ENCODING 105
SWIDTH 185 0
DWIDTH 17 0
BBX 5 64 6 0
BITMAP
20
70
F8
F8
F8
F8
F8
F8
F8
F8
F8
F8
F8
F8
F8
F8
F8
F8
F8
F8
F8
F8
F8
F8
F8
F8
F8
F8
F8
70
20
00
00
00
60
F0
F8
F8
F8
F8
F8
F8
F8
F8
F8
F8
F8
F8
F8
F8
F8
F8
F8
F8
F8
F8
F8
F8
F8
F8
F8
F8
70
20
ENDCHAR
STARTCHAR 006A
ENCODING 106
SWIDTH 501 0
DWIDTH 46 0
BBX 35 64 6 0
BITMAP
0000000100
0000000380
00000007C0
00000007E0
00000007E0
00000007E0
00000007E0
00000007E0
00000007E0
00000007E0
00000007E0
00000007E0
00000007E0
00000007E0
00000007E0
00000007E0
00000007E0
00000007E0
00000007E0
00000007E0
00000007E0
00000007E0
00000007E0
00000007E0
00000007E0
00000007E0
00000007E0
00000007E0
00000003C0
0000000180
0000000000
0000000000
0000000000
2000000000
7000000180
F8000003C0
F8000007E0
F8000007E0
F8000007E0
F8000007E0
F8000007E0
F8000007E0
F8000007E0
F8000007E0
F8000007E0
F8000007E0
F8000007E0
F8000007E0
F8000007E0
F8000007E0
F8000007E0
F8000007E0
F8000007E0
F8000007E0
F8000007E0
F8000007E0
F8000007E0
F0000003C0
63FFFFF180
07FFFFF800
0FFFFFFC00
0FFFFFFC00
07FFFFF800
03FFFFF000
ENDCHAR
STARTCHAR 006B
ENCODING 107
SWIDTH 501 0
DWIDTH 46 0
BBX 35 64 6 0
BITMAP
20000003E0
70000007E0
F800000FE0
F800001FE0
F800003FC0
F800007F80
F80000FF00
F80001FE00
F80003FC00
F80007F800
F8000FF000
F8001FE000
F8003FC000
F8007F8000
F800FF0000
F801FE0000
F803FC0000
F807F80000
F80FF00000
F81FE00000
F83FC00000
F87F800000
F8FF000000
F8FE000000
F8FC000000
F8F8000000
F8F0000000
F800000000
F000000000
63FFFFF000
07FFFFF800
0FFFFFFC00
0FFFFFFC00
07FFFFF800
63FFFFF180
F0000003C0
F8000007E0
F8000007E0
F8000007E0
F8000007E0
F8000007E0
F8000007E0
F8000007E0
F8000007E0
F8000007E0
F8000007E0
F8000007E0
F8000007E0
F8000007E0
F8000007E0
F8000007E0
F8000007E0
F8000007E0
F8000007E0
F8000007E0
F8000007E0
F8000007E0
F8000007E0
F8000007E0
F8000007E0
F8000007E0
F8000007C0
7000000380
2000000100
ENDCHAR
STARTCHAR 006C
ENCODING 108
SWIDTH 458 0
DWIDTH 42 0
BBX 30 64 6 0
BITMAP
20000000
70000000
F8000000
F8000000
F8000000
F8000000
F8000000
F8000000
F8000000
F8000000
F8000000
F8000000
F8000000
F8000000
F8000000
F8000000
F8000000
F8000000
F8000000
F8000000
F8000000
F8000000
F8000000
F8000000
F8000000
F8000000
F8000000
F8000000
F0000000
60000000
00000000
00000000
00000000
20000000
70000000
F8000000
F8000000
F8000000
F8000000
F8000000
F8000000
F8000000
F8000000
F8000000
F8000000
F8000000
F8000000
F8000000
F8000000
F8000000
F8000000
F8000000
F8000000
F8000000
F8000000
F8000000
F8000000
F0000000
63FFFFF0
07FFFFF8
0FFFFFFC
0FFFFFFC
07FFFFF8
03FFFFF0
ENDCHAR
STARTCHAR 006D
ENCODING 109
SWIDTH 687 0
DWIDTH 63 0
BBX 51 64 6 0
BITMAP
03FFFC07FFF800
07FFFE0FFFFC00
0FFFFF1FFFFE00
0FFFFF1FFFFE00
07FFFE0FFFFC00
23FFFC47FFF880
700000E00001C0
F80001F00003E0
F80001F00003E0
F80001F00003E0
F80001F00003E0
F80001F00003E0
F80001F00003E0
F80001F00003E0
F80001F00003E0
F80001F00003E0
F80001F00003E0
F80001F00003E0
F80001F00003E0
F80001F00003E0
F80001F00003E0
F80001F00003E0
F80001F00003E0
F80001F00003E0
F80001F00003E0
F80001F00003E0
F80001F00003E0
F80001F00003E0
F80001F00003E0
700000E00001C0
20000040000080
00000000000000
00000000000000
00000000000000
20000000000080
700000000001C0
F80000000003E0
F80000000003E0
F80000000003E0
F80000000003E0
F80000000003E0
F80000000003E0
F80000000003E0
F80000000003E0
F80000000003E0
F80000000003E0
F80000000003E0
F80000000003E0
F80000000003E0
F80000000003E0
F80000000003E0
F80000000003E0
F80000000003E0
F80000000003E0
F80000000003E0
F80000000003E0
F80000000003E0
F80000000003E0
F80000000003E0
F80000000003E0
F80000000003E0
F80000000003E0
700000000001C0
20000000000080
ENDCHAR
STARTCHAR 006E
ENCODING 110
SWIDTH 501 0
DWIDTH 46 0
BBX 35 64 6 0
BITMAP
03FFFFF000
07FFFFF800
0FFFFFFC00
0FFFFFFC00
07FFFFF800
63FFFFF180
F0000003C0
F8000007E0
F8000007E0
F8000007E0
F8000007E0
F8000007E0
F8000007E0
F8000007E0
F8000007E0
F8000007E0
F8000007E0
F8000007E0
F8000007E0
F8000007E0
F8000007E0
F8000007E0
F8000007E0
F8000007E0
F8000007E0
F8000007E0
F8000007E0
F8000007E0
F8000003C0
7000000180
2000000000
0000000000
0000000000
0000000000
6000000180
F0000003C0
F8000007E0
F8000007E0
F8000007E0
F8000007E0
F8000007E0
F8000007E0
F8000007E0
F8000007E0
F8000007E0
F8000007E0
F8000007E0
F8000007E0
F8000007E0
F8000007E0
F8000007E0
F8000007E0
F8000007E0
F8000007E0
F8000007E0
F8000007E0
F8000007E0
F8000007E0
F8000007E0
F8000007E0
F8000007E0
F8000007C0
7000000380
2000000100
ENDCHAR
STARTCHAR 006F
ENCODING 111
SWIDTH 501 0
DWIDTH 46 0
BBX 35 64 6 0
BITMAP
03FFFFF000
07FFFFF800
0FFFFFFC00
0FFFFFFC00
07FFFFF800
63FFFFF180
F0000003C0
F8000007E0
F8000007E0
F8000007E0
F8000007E0
F8000007E0
F8000007E0
F8000007E0
F8000007E0
F8000007E0
F8000007E0
F8000007E0
F8000007E0
F8000007E0
F8000007E0
F8000007E0
F8000007E0
F8000007E0
F8000007E0
F8000007E0
F8000007E0
F8000007E0
F8000003C0
7000000180
2000000000
0000000000
0000000000
2000000000
7000000180
F8000003C0
F8000007E0
F8000007E0
F8000007E0
F8000007E0
F8000007E0
F8000007E0
F8000007E0
F8000007E0
F8000007E0
F8000007E0
F8000007E0
F8000007E0
F8000007E0
F8000007E0
F8000007E0
F8000007E0
F8000007E0
F8000007E0
F8000007E0
F8000007E0
F8000007E0
F0000003C0
63FFFFF180
07FFFFF800
0FFFFFFC00
0FFFFFFC00
07FFFFF800
03FFFFF000
ENDCHAR
STARTCHAR 0070
ENCODING 112
SWIDTH 501 0
DWIDTH 46 0
BBX 35 64 6 0
BITMAP
03FFFFF000
07FFFFF800
0FFFFFFC00
0FFFFFFC00
07FFFFF800
63FFFFF180
F0000003C0
F8000007E0
F8000007E0
F8000007E0
F8000007E0
F8000007E0
F8000007E0
F8000007E0
F8000007E0
F8000007E0
F8000007E0
F8000007E0
F8000007E0
F8000007E0
F8000007E0
F8000007E0
F8000007E0
F8000007E0
F8000007E0
F8000007E0
F8000007E0
F8000007E0
F0000003C0
63FFFFF180
07FFFFF800
0FFFFFFC00
0FFFFFFC00
07FFFFF800
63FFFFF000
F000000000
F800000000
F800000000
F800000000
F800000000
F800000000
F800000000
F800000000
F800000000
F800000000
F800000000
F800000000
F800000000
F800000000
F800000000
F800000000
F800000000
F800000000
F800000000
F800000000
F800000000
F800000000
F800000000
F800000000
F800000000
F800000000
F800000000
7000000000
2000000000
ENDCHAR
STARTCHAR 0071
ENCODING 113
SWIDTH 501 0
DWIDTH 46 0
BBX 35 64 6 0
BITMAP
03FFFFF000
07FFFFF800
0FFFFFFC00
0FFFFFFC00
07FFFFF800
63FFFFF180
F0000003C0
F8000007E0
F8000007E0
F8000007E0
F8000007E0
F8000007E0
F8000007E0
F8000007E0
F8000007E0
F8000007E0
F8000007E0
F8000007E0
F8000007E0
F8000007E0
F8000007E0
F8000007E0
F8000007E0
F8000007E0
F8000007E0
F8000007E0
F8000007E0
F8000007E0
F8000003C0
7000000180
2000000000
0000000000
0000000000
2000000000
7000000180
F8000003C0
F8000007E0
F8000007E0
F8000007E0
F8000007E0
F8000007E0
F8000007E0
F8000007E0
F8000007E0
F8000007E0
F8000007E0
F8000007E0
F8000007E0
F8000007E0
F8000007E0
F8000007C0
F800000380
F800007900
F800007C00
F800007E00
F800007F00
F800007F80
F000003FC0
63FFFF9FE0
07FFFFCFE0
0FFFFFE7E0
0FFFFFE3E0
07FFFFC000
03FFFF8000
ENDCHAR
STARTCHAR 0072
ENCODING 114
SWIDTH 501 0
DWIDTH 46 0
BBX 35 64 6 0
BITMAP
03FFFFF000
07FFFFF800
0FFFFFFC00
0FFFFFFC00
07FFFFF800
63FFFFF180
F0000003C0
F8000007E0
F8000007E0
F8000007E0
F8000007E0
F8000007E0
F8000007E0
F8000007E0
F8000007E0
F8000007E0
F8000007E0
F8000007E0
F8000007E0
F8000007E0
F8000007E0
F8000007E0
F8000007E0
F8000007E0
F8000007E0
F8000007E0
F8000007E0
F8000007E0
F0000003C0
63FFFFF180
07FFFFF800
0FFFFFFC00
0FFFFFFC00
07FFFFF800
63FFFFF000
F000000000
F800000000
F8F0000000
F8F8000000
F8FC000000
F8FE000000
F8FF000000
F87F800000
F83FC00000
F81FE00000
F80FF00000
F807F80000
F803FC0000
F801FE0000
F800FF0000
F8007F8000
F8003FC000
F8001FE000
F8000FF000
F80007F800
F80003FC00
F80001FE00
F80000FF00
F800007F80
F800003FC0
F800001FE0
F800000FE0
70000007E0
20000003E0
ENDCHAR
STARTCHAR 0073
ENCODING 115
SWIDTH 501 0
DWIDTH 46 0
BBX 35 64 6 0
BITMAP
03FFFFF000
07FFFFF800
0FFFFFFC00
0FFFFFFC00
07FFFFF800
63FFFFF000
F000000000
F800000000
F800000000
F800000000
F800000000
F800000000
F800000000
F800000000
F800000000
F800000000
F800000000
F800000000
F800000000
F800000000
F800000000
F800000000
F800000000
F800000000
F800000000
F800000000
F800000000
F800000000
F000000000
63FFFFF000
07FFFFF800
0FFFFFFC00
0FFFFFFC00
07FFFFF800
03FFFFF180
00000003C0
00000007E0
00000007E0
00000007E0
00000007E0
00000007E0
00000007E0
00000007E0
00000007E0
00000007E0
00000007E0
00000007E0
00000007E0
00000007E0
00000007E0
00000007E0
00000007E0
00000007E0
00000007E0
00000007E0
00000007E0
00000007E0
00000003C0
03FFFFF180
07FFFFF800
0FFFFFFC00
0FFFFFFC00
07FFFFF800
03FFFFF000
ENDCHAR
STARTCHAR 0074
ENCODING 116
SWIDTH 589 0
DWIDTH 54 0
BBX 42 64 6 0
BITMAP
3FFF807FFF00
7FFFC0FFFF80
FFFFE1FFFFC0
FFFFE1FFFFC0
7FFFC0FFFF80
3FFF8C7FFF00
00001E000000
00003F000000
00003F000000
00003F000000
00003F000000
00003F000000
00003F000000
00003F000000
00003F000000
00003F000000
00003F000000
00003F000000
00003F000000
00003F000000
00003F000000
00003F000000
00003F000000
00003F000000
00003F000000
00003F000000
00003F000000
00003F000000
00001E000000
00000C000000
000000000000
000000000000
000000000000
000000000000
00000C000000
00001E000000
00003F000000
00003F000000
00003F000000
00003F000000
00003F000000
00003F000000
00003F000000
00003F000000
00003F000000
00003F000000
00003F000000
00003F000000
00003F000000
00003F000000
00003F000000
00003F000000
00003F000000
00003F000000
00003F000000
00003F000000
00003F000000
00003F000000
00003F000000
00003F000000
00003F000000
00003E000000
00001C000000
000008000000
ENDCHAR
STARTCHAR 0075
ENCODING 117
SWIDTH 501 0
DWIDTH 46 0
BBX 35 64 6 0
BITMAP
2000000100
7000000380
F8000007C0
F8000007E0
F8000007E0
F8000007E0
F8000007E0
F8000007E0
F8000007E0
F8000007E0
F8000007E0
F8000007E0
F8000007E0
F8000007E0
F8000007E0
F8000007E0
F8000007E0
F8000007E0
F8000007E0
F8000007E0
F8000007E0
F8000007E0
F8000007E0
F8000007E0
F8000007E0
F8000007E0
F8000007E0
F8000007E0
F0000003C0
6000000180
0000000000
0000000000
0000000000
2000000000
7000000180
F8000003C0
F8000007E0
F8000007E0
F8000007E0
F8000007E0
F8000007E0
F8000007E0
F8000007E0
F8000007E0
F8000007E0
F8000007E0
F8000007E0
F8000007E0
F8000007E0
F8000007E0
F8000007E0
F8000007E0
F8000007E0
F8000007E0
F8000007E0
F8000007E0
F8000007E0
F0000003C0
63FFFFF180
07FFFFF800
0FFFFFFC00
0FFFFFFC00
07FFFFF800
03FFFFF000
ENDCHAR
STARTCHAR 0076
ENCODING 118
SWIDTH 501 0
DWIDTH 46 0
BBX 35 64 6 0
BITMAP
2000000100
7000000380
F8000007C0
F8000007E0
F8000007E0
F8000007E0
F8000007E0
F8000007E0
F8000007E0
F8000007E0
F8000007E0
F8000007E0
F8000007E0
F8000007E0
F8000007E0
F8000007E0
F8000007E0
F8000007E0
F8000007E0
F8000007E0
F8000007E0
F8000007E0
F8000007E0
F8000007E0
F8000007E0
F8000007E0
F8000007E0
F8000007E0
F0000003C0
6000000180
0000000000
0000000000
0000000000
4000000080
78000003C0
F8000007C0
FC00000FE0
FC00000FC0
FC00000FC0
7E00001FC0
7E00001F80
7F00003F80
3F00003F00
3F00003F00
1F80007F00
1F80007E00
1FC000FE00
0FC000FC00
0FC000FC00
07E001FC00
07E001F800
07F001F800
03F003F000
03F003F000
01F807F000
01F807E000
01FC07E000
00FC0FC000
00FC0FC000
007E1FC000
007E1F8000
007E0F8000
003C0F0000
000C0C0000
ENDCHAR
STARTCHAR 0077
ENCODING 119
SWIDTH 687 0
DWIDTH 63 0
BBX 51 64 6 0
BITMAP
20000000000080
700000000001C0
F80000000003E0
F80000000003E0
F80000000003E0
F80000000003E0
F80000000003E0
F80000000003E0
F80000000003E0
F80000000003E0
F80000000003E0
F80000000003E0
F80000000003E0
F80000000003E0
F80000000003E0
F80000000003E0
F80000000003E0
F80000000003E0
F80000000003E0
F80000000003E0
F80000000003E0
F80000000003E0
F80000000003E0
F80000000003E0
F80000000003E0
F80000000003E0
F80000000003E0
F80000000003E0
700000000001C0
20000000000080
00000000000000
00000000000000
00000000000000
20000040000080
700000E00001C0
F80001F00003E0
F80001F00003E0
F80001F00003E0
F80001F00003E0
F80001F00003E0
F80001F00003E0
F80001F00003E0
F80001F00003E0
F80001F00003E0
F80001F00003E0
F80001F00003E0
F80001F00003E0
F80001F00003E0
F80001F00003E0
F80001F00003E0
F80001F00003E0
F80001F00003E0
F80001F00003E0
F80001F00003E0
F80001F00003E0
F80001F00003E0
F80001F00003E0
700000E00001C0
23FFFC47FFF880
07FFFE0FFFFC00
0FFFFF1FFFFE00
0FFFFF1FFFFE00
07FFFE0FFFFC00
03FFFC07FFF800
ENDCHAR
STARTCHAR 0078
ENCODING 120
SWIDTH 501 0
DWIDTH 46 0
BBX 35 64 6 0
BITMAP
4000000080
78000003C0
F8000007C0
FC00000FE0
FC00000FC0
FC00000FC0
7E00001FC0
7E00001F80
7F00003F80
3F00003F00
3F00003F00
1F80007F00
1F80007E00
1FC000FE00
0FC000FC00
0FC000FC00
07E001FC00
07E001F800
07F003F800
03F003F000
03F003F000
01F807F000
01F807E000
01FC07E000
00FC0FC000
00FC0FC000
007E1FC000
007E1F8000
007E0F8000
003C0F0000
000C040000
0000000000
0000000000
000C040000
003C0F0000
007E0F8000
007E1F8000
007E1FC000
00FC0FC000
00FC0FC000
01FC0FE000
01F807E000
01F807F000
03F003F000
03F003F000
07F003F800
07E001F800
07E001FC00
0FC000FC00
0FC000FC00
1FC000FE00
1F80007E00
1F80007F00
3F80003F00
3F00003F00
7F00003F80
7E00001F80
7E00001FC0
FE00000FC0
FC00000FC0
FC00000FE0
F8000007C0
78000003C0
4000000080
ENDCHAR
STARTCHAR 0079
ENCODING 121
SWIDTH 501 0
DWIDTH 46 0
BBX 35 64 6 0
BITMAP
2000000100
7000000380
F8000007C0
F8000007E0
F8000007E0
F8000007E0
F8000007E0
F8000007E0
F8000007E0
F8000007E0
F8000007E0
F8000007E0
F8000007E0
F8000007E0
F8000007E0
F8000007E0
F8000007E0
F8000007E0
F8000007E0
F8000007E0
F8000007E0
F8000007E0
F8000007E0
F8000007E0
F8000007E0
F8000007E0
F8000007E0
F8000007E0
F0000003C0
63FFFFF180
07FFFFF800
0FFFFFFC00
0FFFFFFC00
07FFFFF800
03FFFFF180
00000003C0
00000007E0
00000007E0
00000007E0
00000007E0
00000007E0
00000007E0
00000007E0
00000007E0
00000007E0
00000007E0
00000007E0
00000007E0
00000007E0
00000007E0
00000007E0
00000007E0
00000007E0
00000007E0
00000007E0
00000007E0
00000007E0
00000003C0
03FFFFF180
07FFFFF800
0FFFFFFC00
0FFFFFFC00
07FFFFF800
03FFFFF000
ENDCHAR
STARTCHAR 007A
ENCODING 122
SWIDTH 501 0
DWIDTH 46 0
BBX 34 64 6 0
BITMAP
3FFFFFE000
7FFFFFF000
FFFFFFF800
FFFFFFF800
7FFFFFF000
3FFFFFE000
0000000100
0000000F00
0000001F00
0000001F80
0000003F80
0000007F00
0000007F00
000000FE00
000000FC00
000001FC00
000001F800
000003F800
000007F000
000007F000
00000FE000
00000FC000
00001FC000
00003F8000
00003F8000
00007F0000
00007E0000
00007E0000
00007C0000
00007C0000
0000000000
0000000000
0000000000
0001000000
000F000000
001F800000
001F800000
003F800000
003F000000
007F000000
00FE000000
00FE000000
01FC000000
01FC000000
03F8000000
03F0000000
07F0000000
0FE0000000
0FE0000000
1FC0000000
1F80000000
3F80000000
7F00000000
7F00000000
7E00000000
3C00000000
3800000000
0000000000
01FFFFFF00
03FFFFFF80
07FFFFFFC0
07FFFFFFC0
03FFFFFF80
01FFFFFF00
ENDCHAR
STARTCHAR 007B
ENCODING 123
SWIDTH 480 0
DWIDTH 44 0
BBX 32 64 6 0
BITMAP
0000FFFC
0001FFFE
0003FFFF
0003FFFF
0001FFFE
0018FFFC
003C0000
007E0000
007E0000
007E0000
007E0000
007E0000
007E0000
007E0000
007E0000
007E0000
007E0000
007E0000
007E0000
007E0000
007E0000
007E0000
007E0000
007E0000
007E0000
007E0000
007E0000
007E0000
003C0000
3F180000
7F000000
FF800000
FF800000
7F800000
3F180000
003C0000
007E0000
007E0000
007E0000
007E0000
007E0000
007E0000
007E0000
007E0000
007E0000
007E0000
007E0000
007E0000
007E0000
007E0000
007E0000
007E0000
007E0000
007E0000
007E0000
007E0000
007E0000
003C0000
0018FFFC
0001FFFE
0003FFFF
0003FFFF
0001FFFE
0000FFFC
ENDCHAR
STARTCHAR 007C
ENCODING 124
SWIDTH 185 0
DWIDTH 17 0
BBX 5 71 6 0
BITMAP
20
70
F8
F8
F8
F8
F8
F8
F8
F8
F8
F8
F8
F8
F8
F8
F8
F8
F8
F8
F8
F8
F8
F8
F8
F8
F8
F8
F8
F8
F8
F8
F8
F8
F8
F8
F8
F8
F8
F8
F8
F8
F8
F8
F8
F8
F8
F8
F8
F8
F8
F8
F8
F8
F8
F8
F8
F8
F8
F8
F8
F8
F8
F8
F8
F8
F8
F8
F8
70
20
ENDCHAR
STARTCHAR 007D
ENCODING 125
SWIDTH 480 0
DWIDTH 44 0
BBX 32 64 6 0
BITMAP
3FFF8000
7FFFC000
FFFFE000
FFFFE000
7FFFC800
3FFF9C00
00003E00
00003E00
00003E00
00003E00
00003E00
00003E00
00003E00
00003E00
00003E00
00003E00
00003E00
00003E00
00003E00
00003E00
00003E00
00003E00
00003E00
00003E00
00003E00
00003E00
00003E00
00003E00
00003E00
00001C7C
000008FE
000001FF
000001FF
000000FE
0000087C
00001C00
00003E00
00003E00
00003E00
00003E00
00003E00
00003E00
00003E00
00003E00
00003E00
00003E00
00003E00
00003E00
00003E00
00003E00
00003E00
00003E00
00003E00
00003E00
00003E00
00003E00
00003E00
00001C00
3FFF8800
7FFFC000
FFFFE000
FFFFE000
7FFFC000
3FFF8000
ENDCHAR
STARTCHAR 00A0
ENCODING 160
SWIDTH 720 0
DWIDTH 66 0
BBX 0 0 0 0
BITMAP
ENDCHAR
STARTCHAR 00A9
ENCODING 169
SWIDTH 501 0
DWIDTH 46 0
BBX 35 40 6 0
BITMAP
03FFFFF000
07FFFFF800
0FFFFFFC00
0FFFFFFC00
07FFFFF800
23FFFFF180
7000000380
F8000007C0
F8000007E0
F8000007E0
F8000007E0
F8000007E0
F807FE07E0
F80FFF07E0
F807FE07E0
F8300007E0
F8300007E0
F8300007E0
F8300007E0
F8300007E0
F8300007E0
F8300007E0
F8300007E0
F8300007E0
F8300007E0
F8300007E0
F807FE07E0
F80FFF07E0
F807FE07E0
F8000007E0
F8000007E0
F8000007E0
F8000007E0
70000003C0
23FFFFF100
07FFFFF800
0FFFFFFC00
0FFFFFFC00
07FFFFF800
03FFFFF000
ENDCHAR
STARTCHAR 00AB
ENCODING 171
SWIDTH 447 0
DWIDTH 41 0
BBX 30 64 6 0
BITMAP
000C0010
003C0078
007E00F8
007E00FC
007E01FC
00FC01F8
00FC03F8
01FC03F0
01F803F0
01F807F0
03F007E0
03F00FE0
07F00FC0
07E00FC0
07E01FC0
0FC01F80
0FC03F80
1FC03F00
1F803F00
1F807F00
3F007E00
3F00FE00
7F00FC00
7E00FC00
7E01FC00
FC01F800
FC03F800
FC03F000
F801F000
7001E000
40008000
00000000
00000000
40008000
7001E000
F801F000
FC03F000
FC03F800
FC01F800
7E01FC00
7E00FC00
7F00FC00
3F00FE00
3F007E00
1F807F00
1F803F00
1FC03F00
0FC03F80
0FC01F80
07E01FC0
07E00FC0
07F00FC0
03F00FE0
03F007E0
01F807F0
01F803F0
01FC03F0
00FC03F8
00FC01F8
007E01FC
007E00FC
007E00F8
003C0078
000C0010
ENDCHAR
STARTCHAR 00AD
ENCODING 173
SWIDTH 0 0
DWIDTH 0 0
BBX 0 0 0 0
BITMAP
ENDCHAR
STARTCHAR 00BB
ENCODING 187
SWIDTH 447 0
DWIDTH 41 0
BBX 30 64 6 0
BITMAP
40008000
7801E000
F801F000
FC03F000
FC03F800
FC01F800
7E01FC00
7E00FC00
7F00FC00
3F00FE00
3F007E00
1F807F00
1F803F00
1FC03F00
0FC03F80
0FC01F80
07E01FC0
07E00FC0
07F00FC0
03F00FE0
03F007E0
01F807F0
01F803F0
01FC03F0
00FC03F8
00FC01F8
007E01FC
007E00FC
007E00F8
003C0078
000C0010
00000000
00000000
000C0010
003C0078
007E00F8
007E00FC
007E01FC
00FC01F8
00FC03F8
01FC03F0
01F803F0
01F807F0
03F007E0
03F00FE0
07F00FC0
07E00FC0
07E01FC0
0FC01F80
0FC03F80
1FC03F00
1F803F00
1F807F00
3F807E00
3F00FE00
7F00FC00
7E00FC00
7E01FC00
FE01F800
FC01F800
FC03F000
F801F000
7801E000
40008000
ENDCHAR
STARTCHAR 00C0
ENCODING 192
SWIDTH 501 0
DWIDTH 46 0
BBX 35 64 6 0
BITMAP
03FFFFF000
07FFFFF800
0FFFFFFC00
0FFFFFFC00
07FFFFF800
63FFFFF180
F0000003C0
F8000007E0
F8000007E0
F8000007E0
F8000007E0
F8000007E0
F8000007E0
F8000007E0
F8000007E0
F8000007E0
F8000007E0
F8000007E0
F8000007E0
F8000007E0
F8000007E0
F8000007E0
F8000007E0
F8000007E0
F8000007E0
F8000007E0
F8000007E0
F8000007E0
F0000003C0
63FFFFF180
07FFFFF800
0FFFFFFC00
0FFFFFFC00
07FFFFF800
63FFFFF180
F0000003C0
F8000007E0
F8000007E0
F8000007E0
F8000007E0
F8000007E0
F8000007E0
F8000007E0
F8000007E0
F8000007E0
F8000007E0
F8000007E0
F8000007E0
F8000007E0
F8000007E0
F8000007E0
F8000007E0
F8000007E0
F8000007E0
F8000007E0
F8000007E0
F8000007E0
F8000007E0
F8000007E0
F8000007E0
F8000007E0
F8000007C0
7000000380
2000000100
ENDCHAR
STARTCHAR 00C1
ENCODING 193
SWIDTH 501 0
DWIDTH 46 0
BBX 35 80 6 0
BITMAP
000003C000
000007C000
00000FC000
00001FC000
00003FC000
00007FC000
0000FF8000
0001FF0000
0003FE0000
0003FC0000
0003F80000
0003F00000
0003E00000
0000000000
0000000000
0000000000
03FFFFF000
07FFFFF800
0FFFFFFC00
0FFFFFFC00
07FFFFF800
63FFFFF180
F0000003C0
F8000007E0
F8000007E0
F8000007E0
F8000007E0
F8000007E0
F8000007E0
F8000007E0
F8000007E0
F8000007E0
F8000007E0
F8000007E0
F8000007E0
F8000007E0
F8000007E0
F8000007E0
F8000007E0
F8000007E0
F8000007E0
F8000007E0
F8000007E0
F8000007E0
F0000003C0
63FFFFF180
07FFFFF800
0FFFFFFC00
0FFFFFFC00
07FFFFF800
63FFFFF180
F0000003C0
F8000007E0
F8000007E0
F8000007E0
F8000007E0
F8000007E0
F8000007E0
F8000007E0
F8000007E0
F8000007E0
F8000007E0
F8000007E0
F8000007E0
F8000007E0
F8000007E0
F8000007E0
F8000007E0
F8000007E0
F8000007E0
F8000007E0
F8000007E0
F8000007E0
F8000007E0
F8000007E0
F8000007E0
F8000007E0
F8000007C0
7000000380
2000000100
ENDCHAR
STARTCHAR 00C2
ENCODING 194
SWIDTH 501 0
DWIDTH 46 0
BBX 35 64 6 0
BITMAP
03FFFFF000
07FFFFF800
0FFFFFFC00
0FFFFFFC00
07FFFFF800
63FFFFF180
F0000003C0
F8000007E0
F8000007E0
F8000007E0
F8000007E0
F8000007E0
F8000007E0
F8000007E0
F8000007E0
F8000007E0
F8000007E0
F8000007E0
F8000007E0
F8000007E0
F8000007E0
F8000007E0
F8000007E0
F8000007E0
F8000007E0
F8000007E0
F8000007E0
F8000007E0
F0000003C0
63FFFFF180
07FFFFF800
0FFFFFFC00
0FFFFFFC00
07FFFFF800
63FFFFF180
F0000003C0
F8000007E0
F8000007E0
F8000007E0
F8000007E0
F8000007E0
F8000007E0
F8000007E0
F8000007E0
F8000007E0
F8000007E0
F8000007E0
F8000007E0
F8000007E0
F8000007E0
F8000007E0
F8000007E0
F8000007E0
F8000007E0
F8000007E0
F8000007E0
F8000007E0
F8000007E0
F8000007E0
F8000007E0
F8000007E0
F8000007C0
7000000380
2000000100
ENDCHAR
STARTCHAR 00C3
ENCODING 195
SWIDTH 501 0
DWIDTH 46 0
BBX 35 64 6 0
BITMAP
03FFFFF000
07FFFFF800
0FFFFFFC00
0FFFFFFC00
07FFFFF800
63FFFFF180
F0000003C0
F8000007E0
F8000007E0
F8000007E0
F8000007E0
F8000007E0
F8000007E0
F8000007E0
F8000007E0
F8000007E0
F8000007E0
F8000007E0
F8000007E0
F8000007E0
F8000007E0
F8000007E0
F8000007E0
F8000007E0
F8000007E0
F8000007E0
F8000007E0
F8000007E0
F0000003C0
63FFFFF180
07FFFFF800
0FFFFFFC00
0FFFFFFC00
07FFFFF800
63FFFFF180
F0000003C0
F8000007E0
F8000007E0
F8000007E0
F8000007E0
F8000007E0
F8000007E0
F8000007E0
F8000007E0
F8000007E0
F8000007E0
F8000007E0
F8000007E0
F8000007E0
F8000007E0
F8000007E0
F8000007E0
F8000007E0
F8000007E0
F8000007E0
F8000007E0
F8000007E0
F8000007E0
F8000007E0
F8000007E0
F8000007E0
F8000007C0
7000000380
2000000100
ENDCHAR
STARTCHAR 00C4
ENCODING 196
SWIDTH 501 0
DWIDTH 46 0
BBX 35 76 6 0
BITMAP
0060008000
00F001C000
01F803E000
01F807E000
01F807E000
01F807E000
01F003E000
00E001C000
0040008000
0000000000
0000000000
0000000000
03FFFFF000
07FFFFF800
0FFFFFFC00
0FFFFFFC00
07FFFFF800
63FFFFF180
F0000003C0
F8000007E0
F8000007E0
F8000007E0
F8000007E0
F8000007E0
F8000007E0
F8000007E0
F8000007E0
F8000007E0
F8000007E0
F8000007E0
F8000007E0
F8000007E0
F8000007E0
F8000007E0
F8000007E0
F8000007E0
F8000007E0
F8000007E0
F8000007E0
F8000007E0
F0000003C0
63FFFFF180
07FFFFF800
0FFFFFFC00
0FFFFFFC00
07FFFFF800
63FFFFF180
F0000003C0
F8000007E0
F8000007E0
F8000007E0
F8000007E0
F8000007E0
F8000007E0
F8000007E0
F8000007E0
F8000007E0
F8000007E0
F8000007E0
F8000007E0
F8000007E0
F8000007E0
F8000007E0
F8000007E0
F8000007E0
F8000007E0
F8000007E0
F8000007E0
F8000007E0
F8000007E0
F8000007E0
F8000007E0
F8000007E0
F8000007C0
7000000380
2000000100
ENDCHAR
STARTCHAR 00C7
ENCODING 199
SWIDTH 458 0
DWIDTH 42 0
BBX 30 76 6 -12
BITMAP
03FFFFF0
07FFFFF8
0FFFFFFC
0FFFFFFC
07FFFFF8
63FFFFF0
F0000000
F8000000
F8000000
F8000000
F8000000
F8000000
F8000000
F8000000
F8000000
F8000000
F8000000
F8000000
F8000000
F8000000
F8000000
F8000000
F8000000
F8000000
F8000000
F8000000
F8000000
F8000000
F8000000
70000000
20000000
00000000
00000000
20000000
70000000
F8000000
F8000000
F8000000
F8000000
F8000000
F8000000
F8000000
F8000000
F8000000
F8000000
F8000000
F8000000
F8000000
F8000000
F8000000
F8000000
F8000000
F8000000
F8000000
F8000000
F8000000
F8000000
F0000000
63FFFFF0
07FFFFF8
0FFFFFFC
0FFFFFFC
07FFFFF8
03FFFFF0
00000000
00000000
00000000
00030000
00078000
000FC000
000FC000
000FC000
000FC000
000F8000
00070000
00020000
ENDCHAR
STARTCHAR 00C8
ENCODING 200
SWIDTH 458 0
DWIDTH 42 0
BBX 30 64 6 0
BITMAP
03FFFFF0
07FFFFF8
0FFFFFFC
0FFFFFFC
07FFFFF8
63FFFFF0
F0000000
F8000000
F8000000
F8000000
F8000000
F8000000
F8000000
F8000000
F8000000
F8000000
F8000000
F8000000
F8000000
F8000000
F8000000
F8000000
F8000000
F8000000
F8000000
F8000000
F8000000
F8000000
F0000000
63FFFFF0
07FFFFF8
0FFFFFFC
0FFFFFFC
07FFFFF8
63FFFFF0
F0000000
F8000000
F8000000
F8000000
F8000000
F8000000
F8000000
F8000000
F8000000
F8000000
F8000000
F8000000
F8000000
F8000000
F8000000
F8000000
F8000000
F8000000
F8000000
F8000000
F8000000
F8000000
F0000000
63FFFFF0
07FFFFF8
0FFFFFFC
0FFFFFFC
07FFFFF8
03FFFFF0
ENDCHAR
STARTCHAR 00C9
ENCODING 201
SWIDTH 458 0
DWIDTH 42 0
BBX 30 80 6 0
BITMAP
00000F00
00001F00
00003F00
00007F00
0000FF00
0001FF00
0003FE00
0007FC00
000FF800
000FF000
000FE000
000FC000
000F8000
00000000
00000000
00000000
03FFFFF0
07FFFFF8
0FFFFFFC
0FFFFFFC
07FFFFF8
63FFFFF0
F0000000
F8000000
F8000000
F8000000
F8000000
F8000000
F8000000
F8000000
F8000000
F8000000
F8000000
F8000000
F8000000
F8000000
F8000000
F8000000
F8000000
F8000000
F8000000
F8000000
F8000000
F8000000
F0000000
63FFFFF0
07FFFFF8
0FFFFFFC
0FFFFFFC
07FFFFF8
63FFFFF0
F0000000
F8000000
F8000000
F8000000
F8000000
F8000000
F8000000
F8000000
F8000000
F8000000
F8000000
F8000000
F8000000
F8000000
F8000000
F8000000
F8000000
F8000000
F8000000
F8000000
F8000000
F8000000
F0000000
63FFFFF0
07FFFFF8
0FFFFFFC
0FFFFFFC
07FFFFF8
03FFFFF0
ENDCHAR
STARTCHAR 00CB
ENCODING 203
SWIDTH 458 0
DWIDTH 42 0
BBX 30 76 6 0
BITMAP
01000600
03800F00
07C01F80
07C01F80
07C01F80
07C01F80
07C00F80
03800700
01000200
00000000
00000000
00000000
03FFFFF0
07FFFFF8
0FFFFFFC
0FFFFFFC
07FFFFF8
63FFFFF0
F0000000
F8000000
F8000000
F8000000
F8000000
F8000000
F8000000
F8000000
F8000000
F8000000
F8000000
F8000000
F8000000
F8000000
F8000000
F8000000
F8000000
F8000000
F8000000
F8000000
F8000000
F8000000
F0000000
63FFFFF0
07FFFFF8
0FFFFFFC
0FFFFFFC
07FFFFF8
63FFFFF0
F0000000
F8000000
F8000000
F8000000
F8000000
F8000000
F8000000
F8000000
F8000000
F8000000
F8000000
F8000000
F8000000
F8000000
F8000000
F8000000
F8000000
F8000000
F8000000
F8000000
F8000000
F8000000
F0000000
63FFFFF0
07FFFFF8
0FFFFFFC
0FFFFFFC
07FFFFF8
03FFFFF0
ENDCHAR
STARTCHAR 00CC
ENCODING 204
SWIDTH 185 0
DWIDTH 17 0
BBX 5 64 6 0
BITMAP
20
70
F8
F8
F8
F8
F8
F8
F8
F8
F8
F8
F8
F8
F8
F8
F8
F8
F8
F8
F8
F8
F8
F8
F8
F8
F8
F8
F8
70
20
00
00
00
60
F0
F8
F8
F8
F8
F8
F8
F8
F8
F8
F8
F8
F8
F8
F8
F8
F8
F8
F8
F8
F8
F8
F8
F8
F8
F8
F8
70
20
ENDCHAR
STARTCHAR 00CD
ENCODING 205
SWIDTH 185 0
DWIDTH 17 0
BBX 5 64 6 0
BITMAP
20
70
F8
F8
F8
F8
F8
F8
F8
F8
F8
F8
F8
F8
F8
F8
F8
F8
F8
F8
F8
F8
F8
F8
F8
F8
F8
F8
F8
70
20
00
00
00
60
F0
F8
F8
F8
F8
F8
F8
F8
F8
F8
F8
F8
F8
F8
F8
F8
F8
F8
F8
F8
F8
F8
F8
F8
F8
F8
F8
70
20
ENDCHAR
STARTCHAR 00CE
ENCODING 206
SWIDTH 185 0
DWIDTH 17 0
BBX 5 64 6 0
BITMAP
20
70
F8
F8
F8
F8
F8
F8
F8
F8
F8
F8
F8
F8
F8
F8
F8
F8
F8
F8
F8
F8
F8
F8
F8
F8
F8
F8
F8
70
20
00
00
00
60
F0
F8
F8
F8
F8
F8
F8
F8
F8
F8
F8
F8
F8
F8
F8
F8
F8
F8
F8
F8
F8
F8
F8
F8
F8
F8
F8
70
20
ENDCHAR
STARTCHAR 00D2
ENCODING 210
SWIDTH 501 0
DWIDTH 46 0
BBX 35 80 6 0
BITMAP
00001E0000
00003E0000
00007E0000
0000FE0000
0001FE0000
0003FC0000
0007F80000
000FF00000
001FE00000
001FC00000
001F800000
001F000000
001E000000
0000000000
0000000000
0000000000
03FFFFF000
07FFFFF800
0FFFFFFC00
0FFFFFFC00
07FFFFF800
63FFFFF180
F0000003C0
F8000007E0
F8000007E0
F8000007E0
F8000007E0
F8000007E0
F8000007E0
F8000007E0
F8000007E0
F8000007E0
F8000007E0
F8000007E0
F8000007E0
F8000007E0
F8000007E0
F8000007E0
F8000007E0
F8000007E0
F8000007E0
F8000007E0
F8000007E0
F8000007E0
F8000003C0
7000000180
2000000000
0000000000
0000000000
2000000000
7000000180
F8000003C0
F8000007E0
F8000007E0
F8000007E0
F8000007E0
F8000007E0
F8000007E0
F8000007E0
F8000007E0
F8000007E0
F8000007E0
F8000007E0
F8000007E0
F8000007E0
F8000007E0
F8000007E0
F8000007E0
F8000007E0
F8000007E0
F8000007E0
F8000007E0
F8000007E0
F0000003C0
63FFFFF180
07FFFFF800
0FFFFFFC00
0FFFFFFC00
07FFFFF800
03FFFFF000
ENDCHAR
STARTCHAR 00D3
ENCODING 211
SWIDTH 501 0
DWIDTH 46 0
BBX 35 64 6 0
BITMAP
03FFFFF000
07FFFFF800
0FFFFFFC00
0FFFFFFC00
07FFFFF800
63FFFFF180
F0000003C0
F8000007E0
F8000007E0
F8000007E0
F8000007E0
F8000007E0
F8000007E0
F8000007E0
F8000007E0
F8000007E0
F8000007E0
F8000007E0
F8000007E0
F8000007E0
F8000007E0
F8000007E0
F8000007E0
F8000007E0
F8000007E0
F8000007E0
F8000007E0
F8000007E0
F8000003C0
7000000180
2000000000
0000000000
0000000000
2000000000
7000000180
F8000003C0
F8000007E0
F8000007E0
F8000007E0
F8000007E0
F8000007E0
F8000007E0
F8000007E0
F8000007E0
F8000007E0
F8000007E0
F8000007E0
F8000007E0
F8000007E0
F8000007E0
F8000007E0
F8000007E0
F8000007E0
F8000007E0
F8000007E0
F8000007E0
F8000007E0
F0000003C0
63FFFFF180
07FFFFF800
0FFFFFFC00
0FFFFFFC00
07FFFFF800
03FFFFF000
ENDCHAR
STARTCHAR 00D4
ENCODING 212
SWIDTH 501 0
DWIDTH 46 0
BBX 35 64 6 0
BITMAP
03FFFFF000
07FFFFF800
0FFFFFFC00
0FFFFFFC00
07FFFFF800
63FFFFF180
F0000003C0
F8000007E0
F8000007E0
F8000007E0
F8000007E0
F8000007E0
F8000007E0
F8000007E0
F8000007E0
F8000007E0
F8000007E0
F8000007E0
F8000007E0
F8000007E0
F8000007E0
F8000007E0
F8000007E0
F8000007E0
F8000007E0
F8000007E0
F8000007E0
F8000007E0
F8000003C0
7000000180
2000000000
0000000000
0000000000
2000000000
7000000180
F8000003C0
F8000007E0
F8000007E0
F8000007E0
F8000007E0
F8000007E0
F8000007E0
F8000007E0
F8000007E0
F8000007E0
F8000007E0
F8000007E0
F8000007E0
F8000007E0
F8000007E0
F8000007E0
F8000007E0
F8000007E0
F8000007E0
F8000007E0
F8000007E0
F8000007E0
F0000003C0
63FFFFF180
07FFFFF800
0FFFFFFC00
0FFFFFFC00
07FFFFF800
03FFFFF000
ENDCHAR
STARTCHAR 00D5
ENCODING 213
SWIDTH 501 0
DWIDTH 46 0
BBX 35 64 6 0
BITMAP
03FFFFF000
07FFFFF800
0FFFFFFC00
0FFFFFFC00
07FFFFF800
63FFFFF180
F0000003C0
F8000007E0
F8000007E0
F8000007E0
F8000007E0
F8000007E0
F8000007E0
F8000007E0
F8000007E0
F8000007E0
F8000007E0
F8000007E0
F8000007E0
F8000007E0
F8000007E0
F8000007E0
F8000007E0
F8000007E0
F8000007E0
F8000007E0
F8000007E0
F8000007E0
F8000003C0
7000000180
2000000000
0000000000
0000000000
2000000000
7000000180
F8000003C0
F8000007E0
F8000007E0
F8000007E0
F8000007E0
F8000007E0
F8000007E0
F8000007E0
F8000007E0
F8000007E0
F8000007E0
F8000007E0
F8000007E0
F8000007E0
F8000007E0
F8000007E0
F8000007E0
F8000007E0
F8000007E0
F8000007E0
F8000007E0
F8000007E0
F0000003C0
63FFFFF180
07FFFFF800
0FFFFFFC00
0FFFFFFC00
07FFFFF800
03FFFFF000
ENDCHAR
STARTCHAR 00D6
ENCODING 214
SWIDTH 501 0
DWIDTH 46 0
BBX 35 76 6 0
BITMAP
0060018000
00F003C000
01F807E000
01F807E000
01F807E000
01F807E000
01F003E000
00E001C000
0040008000
0000000000
0000000000
0000000000
03FFFFF000
07FFFFF800
0FFFFFFC00
0FFFFFFC00
07FFFFF800
63FFFFF180
F0000003C0
F8000007E0
F8000007E0
F8000007E0
F8000007E0
F8000007E0
F8000007E0
F8000007E0
F8000007E0
F8000007E0
F8000007E0
F8000007E0
F8000007E0
F8000007E0
F8000007E0
F8000007E0
F8000007E0
F8000007E0
F8000007E0
F8000007E0
F8000007E0
F8000007E0
F8000003C0
7000000180
2000000000
0000000000
0000000000
2000000000
7000000180
F8000003C0
F8000007E0
F8000007E0
F8000007E0
F8000007E0
F8000007E0
F8000007E0
F8000007E0
F8000007E0
F8000007E0
F8000007E0
F8000007E0
F8000007E0
F8000007E0
F8000007E0
F8000007E0
F8000007E0
F8000007E0
F8000007E0
F8000007E0
F8000007E0
F8000007E0
F0000003C0
63FFFFF180
07FFFFF800
0FFFFFFC00
0FFFFFFC00
07FFFFF800
03FFFFF000
ENDCHAR
STARTCHAR 00D9
ENCODING 217
SWIDTH 501 0
DWIDTH 46 0
BBX 35 80 6 0
BITMAP
00001E0000
00003E0000
00007E0000
0000FE0000
0001FE0000
0003FC0000
0007F80000
000FF00000
001FE00000
001FC00000
001F800000
001F000000
001E000000
0000000000
0000000000
0000000000
2000000100
7000000380
F8000007C0
F8000007E0
F8000007E0
F8000007E0
F8000007E0
F8000007E0
F8000007E0
F8000007E0
F8000007E0
F8000007E0
F8000007E0
F8000007E0
F8000007E0
F8000007E0
F8000007E0
F8000007E0
F8000007E0
F8000007E0
F8000007E0
F8000007E0
F8000007E0
F8000007E0
F8000007E0
F8000007E0
F8000007E0
F8000007E0
F0000003C0
6000000180
0000000000
0000000000
0000000000
2000000000
7000000180
F8000003C0
F8000007E0
F8000007E0
F8000007E0
F8000007E0
F8000007E0
F8000007E0
F8000007E0
F8000007E0
F8000007E0
F8000007E0
F8000007E0
F8000007E0
F8000007E0
F8000007E0
F8000007E0
F8000007E0
F8000007E0
F8000007E0
F8000007E0
F8000007E0
F8000007E0
F0000003C0
63FFFFF180
07FFFFF800
0FFFFFFC00
0FFFFFFC00
07FFFFF800
03FFFFF000
ENDCHAR
STARTCHAR 00DA
ENCODING 218
SWIDTH 501 0
DWIDTH 46 0
BBX 35 64 6 0
BITMAP
2000000100
7000000380
F8000007C0
F8000007E0
F8000007E0
F8000007E0
F8000007E0
F8000007E0
F8000007E0
F8000007E0
F8000007E0
F8000007E0
F8000007E0
F8000007E0
F8000007E0
F8000007E0
F8000007E0
F8000007E0
F8000007E0
F8000007E0
F8000007E0
F8000007E0
F8000007E0
F8000007E0
F8000007E0
F8000007E0
F8000007E0
F8000007E0
F0000003C0
6000000180
0000000000
0000000000
0000000000
2000000000
7000000180
F8000003C0
F8000007E0
F8000007E0
F8000007E0
F8000007E0
F8000007E0
F8000007E0
F8000007E0
F8000007E0
F8000007E0
F8000007E0
F8000007E0
F8000007E0
F8000007E0
F8000007E0
F8000007E0
F8000007E0
F8000007E0
F8000007E0
F8000007E0
F8000007E0
F8000007E0
F0000003C0
63FFFFF180
07FFFFF800
0FFFFFFC00
0FFFFFFC00
07FFFFF800
03FFFFF000
ENDCHAR
STARTCHAR 00DC
ENCODING 220
SWIDTH 501 0
DWIDTH 46 0
BBX 35 76 6 0
BITMAP
0060018000
00F003C000
01F807E000
01F807E000
01F807E000
01F807E000
01F003E000
00E001C000
0040008000
0000000000
0000000000
0000000000
2000000100
7000000380
F8000007C0
F8000007E0
F8000007E0
F8000007E0
F8000007E0
F8000007E0
F8000007E0
F8000007E0
F8000007E0
F8000007E0
F8000007E0
F8000007E0
F8000007E0
F8000007E0
F8000007E0
F8000007E0
F8000007E0
F8000007E0
F8000007E0
F8000007E0
F8000007E0
F8000007E0
F8000007E0
F8000007E0
F8000007E0
F8000007E0
F0000003C0
6000000180
0000000000
0000000000
0000000000
2000000000
7000000180
F8000003C0
F8000007E0
F8000007E0
F8000007E0
F8000007E0
F8000007E0
F8000007E0
F8000007E0
F8000007E0
F8000007E0
F8000007E0
F8000007E0
F8000007E0
F8000007E0
F8000007E0
F8000007E0
F8000007E0
F8000007E0
F8000007E0
F8000007E0
F8000007E0
F8000007E0
F0000003C0
63FFFFF180
07FFFFF800
0FFFFFFC00
0FFFFFFC00
07FFFFF800
03FFFFF000
ENDCHAR
STARTCHAR 00DF
ENCODING 223
SWIDTH 458 0
DWIDTH 42 0
BBX 30 64 6 0
BITMAP
3FFFFE00
7FFFFF00
FFFFFF80
FFFFFF80
7FFFFF00
3FFFFE30
00000078
000000FC
002000FC
007000FC
00F800FC
01F800FC
01F800FC
01F800FC
01F800FC
01F800FC
01F800FC
01F800FC
01F800FC
01F800FC
01F800FC
01F800FC
01F800FC
01F800FC
00F800FC
007000FC
002000FC
000000FC
00000078
3FFFFE30
7FFFFF00
FFFFFF80
FFFFFF80
7FFFFF00
3FFFFE30
00000078
000000FC
002000FC
007000FC
00F800FC
01F800FC
01F800FC
01F800FC
01F800FC
01F800FC
01F800FC
01F800FC
01F800FC
01F800FC
01F800FC
01F800FC
01F800FC
01F800FC
00F800FC
007000FC
002000FC
000000FC
00000078
3FFFFE30
7FFFFF00
FFFFFF80
FFFFFF80
7FFFFF00
3FFFFE00
ENDCHAR
STARTCHAR 00E0
ENCODING 224
SWIDTH 501 0
DWIDTH 46 0
BBX 35 64 6 0
BITMAP
03FFFFF000
07FFFFF800
0FFFFFFC00
0FFFFFFC00
07FFFFF800
63FFFFF180
F0000003C0
F8000007E0
F8000007E0
F8000007E0
F8000007E0
F8000007E0
F8000007E0
F8000007E0
F8000007E0
F8000007E0
F8000007E0
F8000007E0
F8000007E0
F8000007E0
F8000007E0
F8000007E0
F8000007E0
F8000007E0
F8000007E0
F8000007E0
F8000007E0
F8000007E0
F0000003C0
63FFFFF180
07FFFFF800
0FFFFFFC00
0FFFFFFC00
07FFFFF800
63FFFFF180
F0000003C0
F8000007E0
F8000007E0
F8000007E0
F8000007E0
F8000007E0
F8000007E0
F8000007E0
F8000007E0
F8000007E0
F8000007E0
F8000007E0
F8000007E0
F8000007E0
F8000007E0
F8000007E0
F8000007E0
F8000007E0
F8000007E0
F8000007E0
F8000007E0
F8000007E0
F8000007E0
F8000007E0
F8000007E0
F8000007E0
F8000007C0
7000000380
2000000100
ENDCHAR
STARTCHAR 00E1
ENCODING 225
SWIDTH 501 0
DWIDTH 46 0
BBX 35 64 6 0
BITMAP
03FFFFF000
07FFFFF800
0FFFFFFC00
0FFFFFFC00
07FFFFF800
63FFFFF180
F0000003C0
F8000007E0
F8000007E0
F8000007E0
F8000007E0
F8000007E0
F8000007E0
F8000007E0
F8000007E0
F8000007E0
F8000007E0
F8000007E0
F8000007E0
F8000007E0
F8000007E0
F8000007E0
F8000007E0
F8000007E0
F8000007E0
F8000007E0
F8000007E0
F8000007E0
F0000003C0
63FFFFF180
07FFFFF800
0FFFFFFC00
0FFFFFFC00
07FFFFF800
63FFFFF180
F0000003C0
F8000007E0
F8000007E0
F8000007E0
F8000007E0
F8000007E0
F8000007E0
F8000007E0
F8000007E0
F8000007E0
F8000007E0
F8000007E0
F8000007E0
F8000007E0
F8000007E0
F8000007E0
F8000007E0
F8000007E0
F8000007E0
F8000007E0
F8000007E0
F8000007E0
F8000007E0
F8000007E0
F8000007E0
F8000007E0
F8000007C0
7000000380
2000000100
ENDCHAR
STARTCHAR 00E2
ENCODING 226
SWIDTH 501 0
DWIDTH 46 0
BBX 35 64 6 0
BITMAP
03FFFFF000
07FFFFF800
0FFFFFFC00
0FFFFFFC00
07FFFFF800
63FFFFF180
F0000003C0
F8000007E0
F8000007E0
F8000007E0
F8000007E0
F8000007E0
F8000007E0
F8000007E0
F8000007E0
F8000007E0
F8000007E0
F8000007E0
F8000007E0
F8000007E0
F8000007E0
F8000007E0
F8000007E0
F8000007E0
F8000007E0
F8000007E0
F8000007E0
F8000007E0
F0000003C0
63FFFFF180
07FFFFF800
0FFFFFFC00
0FFFFFFC00
07FFFFF800
63FFFFF180
F0000003C0
F8000007E0
F8000007E0
F8000007E0
F8000007E0
F8000007E0
F8000007E0
F8000007E0
F8000007E0
F8000007E0
F8000007E0
F8000007E0
F8000007E0
F8000007E0
F8000007E0
F8000007E0
F8000007E0
F8000007E0
F8000007E0
F8000007E0
F8000007E0
F8000007E0
F8000007E0
F8000007E0
F8000007E0
F8000007E0
F8000007C0
7000000380
2000000100
ENDCHAR
STARTCHAR 00E3
ENCODING 227
SWIDTH 501 0
DWIDTH 46 0
BBX 35 64 6 0
BITMAP
03FFFFF000
07FFFFF800
0FFFFFFC00
0FFFFFFC00
07FFFFF800
63FFFFF180
F0000003C0
F8000007E0
F8000007E0
F8000007E0
F8000007E0
F8000007E0
F8000007E0
F8000007E0
F8000007E0
F8000007E0
F8000007E0
F8000007E0
F8000007E0
F8000007E0
F8000007E0
F8000007E0
F8000007E0
F8000007E0
F8000007E0
F8000007E0
F8000007E0
F8000007E0
F0000003C0
63FFFFF180
07FFFFF800
0FFFFFFC00
0FFFFFFC00
07FFFFF800
63FFFFF180
F0000003C0
F8000007E0
F8000007E0
F8000007E0
F8000007E0
F8000007E0
F8000007E0
F8000007E0
F8000007E0
F8000007E0
F8000007E0
F8000007E0
F8000007E0
F8000007E0
F8000007E0
F8000007E0
F8000007E0
F8000007E0
F8000007E0
F8000007E0
F8000007E0
F8000007E0
F8000007E0
F8000007E0
F8000007E0
F8000007E0
F8000007C0
7000000380
2000000100
ENDCHAR
STARTCHAR 00E4
ENCODING 228
SWIDTH 501 0
DWIDTH 46 0
BBX 35 64 6 0
BITMAP
03FFFFF000
07FFFFF800
0FFFFFFC00
0FFFFFFC00
07FFFFF800
63FFFFF180
F0000003C0
F8000007E0
F8000007E0
F8000007E0
F8000007E0
F8000007E0
F8000007E0
F8000007E0
F8000007E0
F8000007E0
F8000007E0
F8000007E0
F8000007E0
F8000007E0
F8000007E0
F8000007E0
F8000007E0
F8000007E0
F8000007E0
F8000007E0
F8000007E0
F8000007E0
F0000003C0
63FFFFF180
07FFFFF800
0FFFFFFC00
0FFFFFFC00
07FFFFF800
63FFFFF180
F0000003C0
F8000007E0
F8000007E0
F8000007E0
F8000007E0
F8000007E0
F8000007E0
F8000007E0
F8000007E0
F8000007E0
F8000007E0
F8000007E0
F8000007E0
F8000007E0
F8000007E0
F8000007E0
F8000007E0
F8000007E0
F8000007E0
F8000007E0
F8000007E0
F8000007E0
F8000007E0
F8000007E0
F8000007E0
F8000007E0
F8000007C0
7000000380
2000000100
ENDCHAR
STARTCHAR 00E7
ENCODING 231
SWIDTH 458 0
DWIDTH 42 0
BBX 30 76 6 -12
BITMAP
03FFFFF0
07FFFFF8
0FFFFFFC
0FFFFFFC
07FFFFF8
63FFFFF0
F0000000
F8000000
F8000000
F8000000
F8000000
F8000000
F8000000
F8000000
F8000000
F8000000
F8000000
F8000000
F8000000
F8000000
F8000000
F8000000
F8000000
F8000000
F8000000
F8000000
F8000000
F8000000
F8000000
70000000
20000000
00000000
00000000
20000000
70000000
F8000000
F8000000
F8000000
F8000000
F8000000
F8000000
F8000000
F8000000
F8000000
F8000000
F8000000
F8000000
F8000000
F8000000
F8000000
F8000000
F8000000
F8000000
F8000000
F8000000
F8000000
F8000000
F0000000
63FFFFF0
07FFFFF8
0FFFFFFC
0FFFFFFC
07FFFFF8
03FFFFF0
00000000
00000000
00000000
00030000
00078000
000FC000
000FC000
000FC000
000FC000
000F8000
00070000
00020000
ENDCHAR
STARTCHAR 00E8
ENCODING 232
SWIDTH 458 0
DWIDTH 42 0
BBX 30 64 6 0
BITMAP
03FFFFF0
07FFFFF8
0FFFFFFC
0FFFFFFC
07FFFFF8
63FFFFF0
F0000000
F8000000
F8000000
F8000000
F8000000
F8000000
F8000000
F8000000
F8000000
F8000000
F8000000
F8000000
F8000000
F8000000
F8000000
F8000000
F8000000
F8000000
F8000000
F8000000
F8000000
F8000000
F0000000
63FFFFF0
07FFFFF8
0FFFFFFC
0FFFFFFC
07FFFFF8
63FFFFF0
F0000000
F8000000
F8000000
F8000000
F8000000
F8000000
F8000000
F8000000
F8000000
F8000000
F8000000
F8000000
F8000000
F8000000
F8000000
F8000000
F8000000
F8000000
F8000000
F8000000
F8000000
F8000000
F0000000
63FFFFF0
07FFFFF8
0FFFFFFC
0FFFFFFC
07FFFFF8
03FFFFF0
ENDCHAR
STARTCHAR 00E9
ENCODING 233
SWIDTH 458 0
DWIDTH 42 0
BBX 30 64 6 0
BITMAP
03FFFFF0
07FFFFF8
0FFFFFFC
0FFFFFFC
07FFFFF8
63FFFFF0
F0000000
F8000000
F8000000
F8000000
F8000000
F8000000
F8000000
F8000000
F8000000
F8000000
F8000000
F8000000
F8000000
F8000000
F8000000
F8000000
F8000000
F8000000
F8000000
F8000000
F8000000
F8000000
F0000000
63FFFFF0
07FFFFF8
0FFFFFFC
0FFFFFFC
07FFFFF8
63FFFFF0
F0000000
F8000000
F8000000
F8000000
F8000000
F8000000
F8000000
F8000000
F8000000
F8000000
F8000000
F8000000
F8000000
F8000000
F8000000
F8000000
F8000000
F8000000
F8000000
F8000000
F8000000
F8000000
F0000000
63FFFFF0
07FFFFF8
0FFFFFFC
0FFFFFFC
07FFFFF8
03FFFFF0
ENDCHAR
STARTCHAR 00EA
ENCODING 234
SWIDTH 458 0
DWIDTH 42 0
BBX 30 64 6 0
BITMAP
03FFFFF0
07FFFFF8
0FFFFFFC
0FFFFFFC
07FFFFF8
63FFFFF0
F0000000
F8000000
F8000000
F8000000
F8000000
F8000000
F8000000
F8000000
F8000000
F8000000
F8000000
F8000000
F8000000
F8000000
F8000000
F8000000
F8000000
F8000000
F8000000
F8000000
F8000000
F8000000
F0000000
63FFFFF0
07FFFFF8
0FFFFFFC
0FFFFFFC
07FFFFF8
63FFFFF0
F0000000
F8000000
F8000000
F8000000
F8000000
F8000000
F8000000
F8000000
F8000000
F8000000
F8000000
F8000000
F8000000
F8000000
F8000000
F8000000
F8000000
F8000000
F8000000
F8000000
F8000000
F8000000
F0000000
63FFFFF0
07FFFFF8
0FFFFFFC
0FFFFFFC
07FFFFF8
03FFFFF0
ENDCHAR
STARTCHAR 00EC
ENCODING 236
SWIDTH 185 0
DWIDTH 17 0
BBX 5 64 6 0
BITMAP
20
70
F8
F8
F8
F8
F8
F8
F8
F8
F8
F8
F8
F8
F8
F8
F8
F8
F8
F8
F8
F8
F8
F8
F8
F8
F8
F8
F8
70
20
00
00
00
60
F0
F8
F8
F8
F8
F8
F8
F8
F8
F8
F8
F8
F8
F8
F8
F8
F8
F8
F8
F8
F8
F8
F8
F8
F8
F8
F8
70
20
ENDCHAR
STARTCHAR 00ED
ENCODING 237
SWIDTH 185 0
DWIDTH 17 0
BBX 5 64 6 0
BITMAP
20
70
F8
F8
F8
F8
F8
F8
F8
F8
F8
F8
F8
F8
F8
F8
F8
F8
F8
F8
F8
F8
F8
F8
F8
F8
F8
F8
F8
70
20
00
00
00
60
F0
F8
F8
F8
F8
F8
F8
F8
F8
F8
F8
F8
F8
F8
F8
F8
F8
F8
F8
F8
F8
F8
F8
F8
F8
F8
F8
70
20
ENDCHAR
STARTCHAR 00EE
ENCODING 238
SWIDTH 185 0
DWIDTH 17 0
BBX 5 64 6 0
BITMAP
20
70
F8
F8
F8
F8
F8
F8
F8
F8
F8
F8
F8
F8
F8
F8
F8
F8
F8
F8
F8
F8
F8
F8
F8
F8
F8
F8
F8
70
20
00
00
00
60
F0
F8
F8
F8
F8
F8
F8
F8
F8
F8
F8
F8
F8
F8
F8
F8
F8
F8
F8
F8
F8
F8
F8
F8
F8
F8
F8
70
20
ENDCHAR
STARTCHAR 00F2
ENCODING 242
SWIDTH 501 0
DWIDTH 46 0
BBX 35 64 6 0
BITMAP
03FFFFF000
07FFFFF800
0FFFFFFC00
0FFFFFFC00
07FFFFF800
63FFFFF180
F0000003C0
F8000007E0
F8000007E0
F8000007E0
F8000007E0
F8000007E0
F8000007E0
F8000007E0
F8000007E0
F8000007E0
F8000007E0
F8000007E0
F8000007E0
F8000007E0
F8000007E0
F8000007E0
F8000007E0
F8000007E0
F8000007E0
F8000007E0
F8000007E0
F8000007E0
F8000003C0
7000000180
2000000000
0000000000
0000000000
2000000000
7000000180
F8000003C0
F8000007E0
F8000007E0
F8000007E0
F8000007E0
F8000007E0
F8000007E0
F8000007E0
F8000007E0
F8000007E0
F8000007E0
F8000007E0
F8000007E0
F8000007E0
F8000007E0
F8000007E0
F8000007E0
F8000007E0
F8000007E0
F8000007E0
F8000007E0
F8000007E0
F0000003C0
63FFFFF180
07FFFFF800
0FFFFFFC00
0FFFFFFC00
07FFFFF800
03FFFFF000
ENDCHAR
STARTCHAR 00F3
ENCODING 243
SWIDTH 501 0
DWIDTH 46 0
BBX 35 64 6 0
BITMAP
03FFFFF000
07FFFFF800
0FFFFFFC00
0FFFFFFC00
07FFFFF800
63FFFFF180
F0000003C0
F8000007E0
F8000007E0
F8000007E0
F8000007E0
F8000007E0
F8000007E0
F8000007E0
F8000007E0
F8000007E0
F8000007E0
F8000007E0
F8000007E0
F8000007E0
F8000007E0
F8000007E0
F8000007E0
F8000007E0
F8000007E0
F8000007E0
F8000007E0
F8000007E0
F8000003C0
7000000180
2000000000
0000000000
0000000000
2000000000
7000000180
F8000003C0
F8000007E0
F8000007E0
F8000007E0
F8000007E0
F8000007E0
F8000007E0
F8000007E0
F8000007E0
F8000007E0
F8000007E0
F8000007E0
F8000007E0
F8000007E0
F8000007E0
F8000007E0
F8000007E0
F8000007E0
F8000007E0
F8000007E0
F8000007E0
F8000007E0
F0000003C0
63FFFFF180
07FFFFF800
0FFFFFFC00
0FFFFFFC00
07FFFFF800
03FFFFF000
ENDCHAR
STARTCHAR 00F4
ENCODING 244
SWIDTH 501 0
DWIDTH 46 0
BBX 35 64 6 0
BITMAP
03FFFFF000
07FFFFF800
0FFFFFFC00
0FFFFFFC00
07FFFFF800
63FFFFF180
F0000003C0
F8000007E0
F8000007E0
F8000007E0
F8000007E0
F8000007E0
F8000007E0
F8000007E0
F8000007E0
F8000007E0
F8000007E0
F8000007E0
F8000007E0
F8000007E0
F8000007E0
F8000007E0
F8000007E0
F8000007E0
F8000007E0
F8000007E0
F8000007E0
F8000007E0
F8000003C0
7000000180
2000000000
0000000000
0000000000
2000000000
7000000180
F8000003C0
F8000007E0
F8000007E0
F8000007E0
F8000007E0
F8000007E0
F8000007E0
F8000007E0
F8000007E0
F8000007E0
F8000007E0
F8000007E0
F8000007E0
F8000007E0
F8000007E0
F8000007E0
F8000007E0
F8000007E0
F8000007E0
F8000007E0
F8000007E0
F8000007E0
F0000003C0
63FFFFF180
07FFFFF800
0FFFFFFC00
0FFFFFFC00
07FFFFF800
03FFFFF000
ENDCHAR
STARTCHAR 00F5
ENCODING 245
SWIDTH 501 0
DWIDTH 46 0
BBX 35 64 6 0
BITMAP
03FFFFF000
07FFFFF800
0FFFFFFC00
0FFFFFFC00
07FFFFF800
63FFFFF180
F0000003C0
F8000007E0
F8000007E0
F8000007E0
F8000007E0
F8000007E0
F8000007E0
F8000007E0
F8000007E0
F8000007E0
F8000007E0
F8000007E0
F8000007E0
F8000007E0
F8000007E0
F8000007E0
F8000007E0
F8000007E0
F8000007E0
F8000007E0
F8000007E0
F8000007E0
F8000003C0
7000000180
2000000000
0000000000
0000000000
2000000000
7000000180
F8000003C0
F8000007E0
F8000007E0
F8000007E0
F8000007E0
F8000007E0
F8000007E0
F8000007E0
F8000007E0
F8000007E0
F8000007E0
F8000007E0
F8000007E0
F8000007E0
F8000007E0
F8000007E0
F8000007E0
F8000007E0
F8000007E0
F8000007E0
F8000007E0
F8000007E0
F0000003C0
63FFFFF180
07FFFFF800
0FFFFFFC00
0FFFFFFC00
07FFFFF800
03FFFFF000
ENDCHAR
STARTCHAR 00F6
ENCODING 246
SWIDTH 501 0
DWIDTH 46 0
BBX 35 76 6 0
BITMAP
0060018000
00F003C000
01F807E000
01F807E000
01F807E000
01F807E000
01F003E000
00E001C000
0040008000
0000000000
0000000000
0000000000
03FFFFF000
07FFFFF800
0FFFFFFC00
0FFFFFFC00
07FFFFF800
63FFFFF180
F0000003C0
F8000007E0
F8000007E0
F8000007E0
F8000007E0
F8000007E0
F8000007E0
F8000007E0
F8000007E0
F8000007E0
F8000007E0
F8000007E0
F8000007E0
F8000007E0
F8000007E0
F8000007E0
F8000007E0
F8000007E0
F8000007E0
F8000007E0
F8000007E0
F8000007E0
F8000003C0
7000000180
2000000000
0000000000
0000000000
2000000000
7000000180
F8000003C0
F8000007E0
F8000007E0
F8000007E0
F8000007E0
F8000007E0
F8000007E0
F8000007E0
F8000007E0
F8000007E0
F8000007E0
F8000007E0
F8000007E0
F8000007E0
F8000007E0
F8000007E0
F8000007E0
F8000007E0
F8000007E0
F8000007E0
F8000007E0
F8000007E0
F0000003C0
63FFFFF180
07FFFFF800
0FFFFFFC00
0FFFFFFC00
07FFFFF800
03FFFFF000
ENDCHAR
STARTCHAR 00F7
ENCODING 247
SWIDTH 556 0
DWIDTH 51 0
BBX 39 36 6 0
BITMAP
0000100000
0000380000
00007C0000
0000FC0000
0000FC0000
0000FC0000
00007C0000
0000380000
0000100000
0000000000
0000000000
0000000000
0000000000
0000000000
0000000000
3FFFFFFFF8
7FFFFFFFFC
FFFFFFFFFE
FFFFFFFFFE
7FFFFFFFFC
3FFFFFFFF8
0000000000
0000000000
0000000000
0000000000
0000000000
0000000000
0000100000
0000380000
00007C0000
0000FC0000
0000FC0000
0000FC0000
00007C0000
0000380000
0000100000
ENDCHAR
STARTCHAR 00F9
ENCODING 249
SWIDTH 501 0
DWIDTH 46 0
BBX 35 64 6 0
BITMAP
2000000100
7000000380
F8000007C0
F8000007E0
F8000007E0
F8000007E0
F8000007E0
F8000007E0
F8000007E0
F8000007E0
F8000007E0
F8000007E0
F8000007E0
F8000007E0
F8000007E0
F8000007E0
F8000007E0
F8000007E0
F8000007E0
F8000007E0
F8000007E0
F8000007E0
F8000007E0
F8000007E0
F8000007E0
F8000007E0
F8000007E0
F8000007E0
F0000003C0
6000000180
0000000000
0000000000
0000000000
2000000000
7000000180
F8000003C0
F8000007E0
F8000007E0
F8000007E0
F8000007E0
F8000007E0
F8000007E0
F8000007E0
F8000007E0
F8000007E0
F8000007E0
F8000007E0
F8000007E0
F8000007E0
F8000007E0
F8000007E0
F8000007E0
F8000007E0
F8000007E0
F8000007E0
F8000007E0
F8000007E0
F0000003C0
63FFFFF180
07FFFFF800
0FFFFFFC00
0FFFFFFC00
07FFFFF800
03FFFFF000
ENDCHAR
STARTCHAR 00FA
ENCODING 250
SWIDTH 501 0
DWIDTH 46 0
BBX 35 64 6 0
BITMAP
2000000100
7000000380
F8000007C0
F8000007E0
F8000007E0
F8000007E0
F8000007E0
F8000007E0
F8000007E0
F8000007E0
F8000007E0
F8000007E0
F8000007E0
F8000007E0
F8000007E0
F8000007E0
F8000007E0
F8000007E0
F8000007E0
F8000007E0
F8000007E0
F8000007E0
F8000007E0
F8000007E0
F8000007E0
F8000007E0
F8000007E0
F8000007E0
F0000003C0
6000000180
0000000000
0000000000
0000000000
2000000000
7000000180
F8000003C0
F8000007E0
F8000007E0
F8000007E0
F8000007E0
F8000007E0
F8000007E0
F8000007E0
F8000007E0
F8000007E0
F8000007E0
F8000007E0
F8000007E0
F8000007E0
F8000007E0
F8000007E0
F8000007E0
F8000007E0
F8000007E0
F8000007E0
F8000007E0
F8000007E0
F0000003C0
63FFFFF180
07FFFFF800
0FFFFFFC00
0FFFFFFC00
07FFFFF800
03FFFFF000
ENDCHAR
STARTCHAR 00FC
ENCODING 252
SWIDTH 501 0
DWIDTH 46 0
BBX 35 76 6 0
BITMAP
0060018000
00F003C000
01F807E000
01F807E000
01F807E000
01F807E000
01F003E000
00E001C000
0040008000
0000000000
0000000000
0000000000
2000000100
7000000380
F8000007C0
F8000007E0
F8000007E0
F8000007E0
F8000007E0
F8000007E0
F8000007E0
F8000007E0
F8000007E0
F8000007E0
F8000007E0
F8000007E0
F8000007E0
F8000007E0
F8000007E0
F8000007E0
F8000007E0
F8000007E0
F8000007E0
F8000007E0
F8000007E0
F8000007E0
F8000007E0
F8000007E0
F8000007E0
F8000007E0
F0000003C0
6000000180
0000000000
0000000000
0000000000
2000000000
7000000180
F8000003C0
F8000007E0
F8000007E0
F8000007E0
F8000007E0
F8000007E0
F8000007E0
F8000007E0
F8000007E0
F8000007E0
F8000007E0
F8000007E0
F8000007E0
F8000007E0
F8000007E0
F8000007E0
F8000007E0
F8000007E0
F8000007E0
F8000007E0
F8000007E0
F8000007E0
F0000003C0
63FFFFF180
07FFFFF800
0FFFFFFC00
0FFFFFFC00
07FFFFF800
03FFFFF000
ENDCHAR
STARTCHAR 00FD
ENCODING 253
SWIDTH 501 0
DWIDTH 46 0
BBX 35 64 6 0
BITMAP
2000000100
7000000380
F8000007C0
F8000007E0
F8000007E0
F8000007E0
F8000007E0
F8000007E0
F8000007E0
F8000007E0
F8000007E0
F8000007E0
F8000007E0
F8000007E0
F8000007E0
F8000007E0
F8000007E0
F8000007E0
F8000007E0
F8000007E0
F8000007E0
F8000007E0
F8000007E0
F8000007E0
F8000007E0
F8000007E0
F8000007E0
F8000007E0
F0000003C0
63FFFFF180
07FFFFF800
0FFFFFFC00
0FFFFFFC00
07FFFFF800
03FFFFF180
00000003C0
00000007E0
00000007E0
00000007E0
00000007E0
00000007E0
00000007E0
00000007E0
00000007E0
00000007E0
00000007E0
00000007E0
00000007E0
00000007E0
00000007E0
00000007E0
00000007E0
00000007E0
00000007E0
00000007E0
00000007E0
00000007E0
00000003C0
03FFFFF180
07FFFFF800
0FFFFFFC00
0FFFFFFC00
07FFFFF800
03FFFFF000
ENDCHAR
STARTCHAR 2000
ENCODING 8192
SWIDTH 436 0
DWIDTH 40 0
BBX 0 0 0 0
BITMAP
ENDCHAR
STARTCHAR 2001
ENCODING 8193
SWIDTH 872 0
DWIDTH 80 0
BBX 0 0 0 0
BITMAP
ENDCHAR
STARTCHAR 2002
ENCODING 8194
SWIDTH 436 0
DWIDTH 40 0
BBX 0 0 0 0
BITMAP
ENDCHAR
STARTCHAR 2003
ENCODING 8195
SWIDTH 872 0
DWIDTH 80 0
BBX 0 0 0 0
BITMAP
ENDCHAR
STARTCHAR 2004
ENCODING 8196
SWIDTH 294 0
DWIDTH 27 0
BBX 0 0 0 0
BITMAP
ENDCHAR
STARTCHAR 2005
ENCODING 8197
SWIDTH 218 0
DWIDTH 20 0
BBX 0 0 0 0
BITMAP
ENDCHAR
STARTCHAR 2006
ENCODING 8198
SWIDTH 141 0
DWIDTH 13 0
BBX 0 0 0 0
BITMAP
ENDCHAR
STARTCHAR 2007
ENCODING 8199
SWIDTH 141 0
DWIDTH 13 0
BBX 0 0 0 0
BITMAP
ENDCHAR
STARTCHAR 2008
ENCODING 8200
SWIDTH 109 0
DWIDTH 10 0
BBX 0 0 0 0
BITMAP
ENDCHAR
STARTCHAR 2009
ENCODING 8201
SWIDTH 174 0
DWIDTH 16 0
BBX 0 0 0 0
BITMAP
ENDCHAR
STARTCHAR 200A
ENCODING 8202
SWIDTH 43 0
DWIDTH 4 0
BBX 0 0 0 0
BITMAP
ENDCHAR
STARTCHAR 2010
ENCODING 8208
SWIDTH 403 0
DWIDTH 37 0
BBX 26 6 6 29
BITMAP
3FFFFF00
7FFFFF80
FFFFFFC0
FFFFFF80
7FFFFF00
3FFFFE00
ENDCHAR
STARTCHAR 2011
ENCODING 8209
SWIDTH 403 0
DWIDTH 37 0
BBX 26 6 6 29
BITMAP
3FFFFF00
7FFFFF80
FFFFFFC0
FFFFFF80
7FFFFF00
3FFFFE00
ENDCHAR
STARTCHAR 2012
ENCODING 8210
SWIDTH 403 0
DWIDTH 37 0
BBX 26 6 6 29
BITMAP
3FFFFF00
7FFFFF80
FFFFFFC0
FFFFFF80
7FFFFF00
3FFFFE00
ENDCHAR
STARTCHAR 2013
ENCODING 8211
SWIDTH 621 0
DWIDTH 57 0
BBX 45 6 6 29
BITMAP
0FFFFFFFFF80
3FFFFFFFFFE0
FFFFFFFFFFF8
7FFFFFFFFFF0
3FFFFFFFFFE0
0FFFFFFFFF80
ENDCHAR
STARTCHAR 2014
ENCODING 8212
SWIDTH 1123 0
DWIDTH 103 0
BBX 91 6 6 29
BITMAP
00FFFFFFFFFFFFFFFFFFF000
0FFFFFFFFFFFFFFFFFFFFE00
7FFFFFFFFFFFFFFFFFFFFFC0
BFFFFFFFFFFFFFFFFFFFFFA0
07FFFFFFFFFFFFFFFFFFFC00
007FFFFFFFFFFFFFFFFFC000
ENDCHAR
STARTCHAR 2018
ENCODING 8216
SWIDTH 272 0
DWIDTH 25 0
BBX 13 20 6 -12
BITMAP
0038
00F8
01F8
01F8
03F8
03F0
07F0
07E0
0FE0
1FC0
1FC0
3F80
3F00
7F00
FE00
FE00
FC00
F800
F800
E000
ENDCHAR
STARTCHAR 201C
ENCODING 8220
SWIDTH 283 0
DWIDTH 26 0
BBX 14 9 6 55
BITMAP
2010
7038
F87C
F8FC
F8FC
F8FC
F87C
7038
2010
ENDCHAR
STARTCHAR 202F
ENCODING 8239
SWIDTH 174 0
DWIDTH 16 0
BBX 0 0 0 0
BITMAP
ENDCHAR
STARTCHAR 205F
ENCODING 8287
SWIDTH 218 0
DWIDTH 20 0
BBX 0 0 0 0
BITMAP
ENDCHAR
STARTCHAR 20AC
ENCODING 8364
SWIDTH 458 0
DWIDTH 42 0
BBX 30 64 6 0
BITMAP
03FFFFF0
07FFFFF8
0FFFFFFC
0FFFFFFC
07FFFFF8
63FFFFF0
F0000000
F8000000
F8000000
F8000000
F8000000
F8000000
F8000000
F8000000
F8000000
F8000000
F81FFE00
F83FFF00
F87FFF80
F87FFF80
F83FFF00
F81FFE00
F8000000
F8000000
F8000000
F8000000
F8000000
F8000000
F0000000
63FFFFF0
07FFFFF8
0FFFFFFC
0FFFFFFC
07FFFFF8
63FFFFF0
F0000000
F8000000
F8000000
F8000000
F8000000
F8000000
F8000000
F81FFE00
F83FFF00
F87FFF80
F87FFF80
F83FFF00
F81FFE00
F8000000
F8000000
F8000000
F8000000
F8000000
F8000000
F8000000
F8000000
F8000000
F0000000
63FFFFF0
07FFFFF8
0FFFFFFC
0FFFFFFC
07FFFFF8
03FFFFF0
ENDCHAR
STARTCHAR 25FC
ENCODING 9724
SWIDTH 698 0
DWIDTH 64 0
BBX 64 64 0 0
BITMAP
FFFFFFFFFFFFFFFF
FFFFFFFFFFFFFFFF
FFFFFFFFFFFFFFFF
FFFFFFFFFFFFFFFF
FFFFFFFFFFFFFFFF
FFFFFFFFFFFFFFFF
FFFFFFFFFFFFFFFF
FFFFFFFFFFFFFFFF
FFFFFFFFFFFFFFFF
FFFFFFFFFFFFFFFF
FFFFFFFFFFFFFFFF
FFFFFFFFFFFFFFFF
FFFFFFFFFFFFFFFF
FFFFFFFFFFFFFFFF
FFFFFFFFFFFFFFFF
FFFFFFFFFFFFFFFF
FFFFFFFFFFFFFFFF
FFFFFFFFFFFFFFFF
FFFFFFFFFFFFFFFF
FFFFFFFFFFFFFFFF
FFFFFFFFFFFFFFFF
FFFFFFFFFFFFFFFF
FFFFFFFFFFFFFFFF
FFFFFFFFFFFFFFFF
FFFFFFFFFFFFFFFF
FFFFFFFFFFFFFFFF
FFFFFFFFFFFFFFFF
FFFFFFFFFFFFFFFF
FFFFFFFFFFFFFFFF
FFFFFFFFFFFFFFFF
FFFFFFFFFFFFFFFF
FFFFFFFFFFFFFFFF
FFFFFFFFFFFFFFFF
FFFFFFFFFFFFFFFF
FFFFFFFFFFFFFFFF
FFFFFFFFFFFFFFFF
FFFFFFFFFFFFFFFF
FFFFFFFFFFFFFFFF
FFFFFFFFFFFFFFFF
FFFFFFFFFFFFFFFF
FFFFFFFFFFFFFFFF
FFFFFFFFFFFFFFFF
FFFFFFFFFFFFFFFF
FFFFFFFFFFFFFFFF
FFFFFFFFFFFFFFFF
FFFFFFFFFFFFFFFF
FFFFFFFFFFFFFFFF
FFFFFFFFFFFFFFFF
FFFFFFFFFFFFFFFF
FFFFFFFFFFFFFFFF
FFFFFFFFFFFFFFFF
FFFFFFFFFFFFFFFF
FFFFFFFFFFFFFFFF
FFFFFFFFFFFFFFFF
FFFFFFFFFFFFFFFF
FFFFFFFFFFFFFFFF
FFFFFFFFFFFFFFFF
FFFFFFFFFFFFFFFF
FFFFFFFFFFFFFFFF
FFFFFFFFFFFFFFFF
FFFFFFFFFFFFFFFF
FFFFFFFFFFFFFFFF
FFFFFFFFFFFFFFFF
FFFFFFFFFFFFFFFF
ENDCHAR
ENDFONT
